<?xml version="1.0" encoding="utf-8" standalone="no"?>
<!DOCTYPE svg PUBLIC "-//W3C//DTD SVG 1.1//EN"
  "http://www.w3.org/Graphics/SVG/1.1/DTD/svg11.dtd">
<!-- Created with matplotlib (http://matplotlib.org/) -->
<svg height="345pt" version="1.1" viewBox="0 0 460 345" width="460pt" xmlns="http://www.w3.org/2000/svg" xmlns:xlink="http://www.w3.org/1999/xlink">
 <defs>
  <style type="text/css">
*{stroke-linecap:butt;stroke-linejoin:round;}
  </style>
 </defs>
 <g id="figure_1">
  <g id="patch_1">
   <path d="M 0 345.6 
L 460.8 345.6 
L 460.8 0 
L 0 0 
z
" style="fill:#ffffff;"/>
  </g>
  <g id="axes_1">
   <g id="patch_2">
    <path d="M 57.6 307.584 
L 414.72 307.584 
L 414.72 41.472 
L 57.6 41.472 
z
" style="fill:#ffffff;"/>
   </g>
   <g id="matplotlib.axis_1">
    <g id="xtick_1">
     <g id="line2d_1">
      <path clip-path="url(#pb7414489b7)" d="M 73.832727 307.584 
L 73.832727 41.472 
" style="fill:none;stroke:#b0b0b0;stroke-linecap:square;stroke-width:0.8;"/>
     </g>
     <g id="line2d_2">
      <defs>
       <path d="M 0 0 
L 0 3.5 
" id="m43d1f732e4" style="stroke:#000000;stroke-width:0.8;"/>
      </defs>
      <g>
       <use style="stroke:#000000;stroke-width:0.8;" x="73.832727" xlink:href="#m43d1f732e4" y="307.584"/>
      </g>
     </g>
     <g id="text_1">
      <!-- 0 -->
      <defs>
       <path d="M 31.78125 66.40625 
Q 24.171875 66.40625 20.328125 58.90625 
Q 16.5 51.421875 16.5 36.375 
Q 16.5 21.390625 20.328125 13.890625 
Q 24.171875 6.390625 31.78125 6.390625 
Q 39.453125 6.390625 43.28125 13.890625 
Q 47.125 21.390625 47.125 36.375 
Q 47.125 51.421875 43.28125 58.90625 
Q 39.453125 66.40625 31.78125 66.40625 
z
M 31.78125 74.21875 
Q 44.046875 74.21875 50.515625 64.515625 
Q 56.984375 54.828125 56.984375 36.375 
Q 56.984375 17.96875 50.515625 8.265625 
Q 44.046875 -1.421875 31.78125 -1.421875 
Q 19.53125 -1.421875 13.0625 8.265625 
Q 6.59375 17.96875 6.59375 36.375 
Q 6.59375 54.828125 13.0625 64.515625 
Q 19.53125 74.21875 31.78125 74.21875 
z
" id="DejaVuSans-30"/>
      </defs>
      <g transform="translate(70.651477 322.182437)scale(0.1 -0.1)">
       <use xlink:href="#DejaVuSans-30"/>
      </g>
     </g>
    </g>
    <g id="xtick_2">
     <g id="line2d_3">
      <path clip-path="url(#pb7414489b7)" d="M 138.763636 307.584 
L 138.763636 41.472 
" style="fill:none;stroke:#b0b0b0;stroke-linecap:square;stroke-width:0.8;"/>
     </g>
     <g id="line2d_4">
      <g>
       <use style="stroke:#000000;stroke-width:0.8;" x="138.763636" xlink:href="#m43d1f732e4" y="307.584"/>
      </g>
     </g>
     <g id="text_2">
      <!-- 50 -->
      <defs>
       <path d="M 10.796875 72.90625 
L 49.515625 72.90625 
L 49.515625 64.59375 
L 19.828125 64.59375 
L 19.828125 46.734375 
Q 21.96875 47.46875 24.109375 47.828125 
Q 26.265625 48.1875 28.421875 48.1875 
Q 40.625 48.1875 47.75 41.5 
Q 54.890625 34.8125 54.890625 23.390625 
Q 54.890625 11.625 47.5625 5.09375 
Q 40.234375 -1.421875 26.90625 -1.421875 
Q 22.3125 -1.421875 17.546875 -0.640625 
Q 12.796875 0.140625 7.71875 1.703125 
L 7.71875 11.625 
Q 12.109375 9.234375 16.796875 8.0625 
Q 21.484375 6.890625 26.703125 6.890625 
Q 35.15625 6.890625 40.078125 11.328125 
Q 45.015625 15.765625 45.015625 23.390625 
Q 45.015625 31 40.078125 35.4375 
Q 35.15625 39.890625 26.703125 39.890625 
Q 22.75 39.890625 18.8125 39.015625 
Q 14.890625 38.140625 10.796875 36.28125 
z
" id="DejaVuSans-35"/>
      </defs>
      <g transform="translate(132.401136 322.182437)scale(0.1 -0.1)">
       <use xlink:href="#DejaVuSans-35"/>
       <use x="63.623047" xlink:href="#DejaVuSans-30"/>
      </g>
     </g>
    </g>
    <g id="xtick_3">
     <g id="line2d_5">
      <path clip-path="url(#pb7414489b7)" d="M 203.694545 307.584 
L 203.694545 41.472 
" style="fill:none;stroke:#b0b0b0;stroke-linecap:square;stroke-width:0.8;"/>
     </g>
     <g id="line2d_6">
      <g>
       <use style="stroke:#000000;stroke-width:0.8;" x="203.694545" xlink:href="#m43d1f732e4" y="307.584"/>
      </g>
     </g>
     <g id="text_3">
      <!-- 100 -->
      <defs>
       <path d="M 12.40625 8.296875 
L 28.515625 8.296875 
L 28.515625 63.921875 
L 10.984375 60.40625 
L 10.984375 69.390625 
L 28.421875 72.90625 
L 38.28125 72.90625 
L 38.28125 8.296875 
L 54.390625 8.296875 
L 54.390625 0 
L 12.40625 0 
z
" id="DejaVuSans-31"/>
      </defs>
      <g transform="translate(194.150795 322.182437)scale(0.1 -0.1)">
       <use xlink:href="#DejaVuSans-31"/>
       <use x="63.623047" xlink:href="#DejaVuSans-30"/>
       <use x="127.246094" xlink:href="#DejaVuSans-30"/>
      </g>
     </g>
    </g>
    <g id="xtick_4">
     <g id="line2d_7">
      <path clip-path="url(#pb7414489b7)" d="M 268.625455 307.584 
L 268.625455 41.472 
" style="fill:none;stroke:#b0b0b0;stroke-linecap:square;stroke-width:0.8;"/>
     </g>
     <g id="line2d_8">
      <g>
       <use style="stroke:#000000;stroke-width:0.8;" x="268.625455" xlink:href="#m43d1f732e4" y="307.584"/>
      </g>
     </g>
     <g id="text_4">
      <!-- 150 -->
      <g transform="translate(259.081705 322.182437)scale(0.1 -0.1)">
       <use xlink:href="#DejaVuSans-31"/>
       <use x="63.623047" xlink:href="#DejaVuSans-35"/>
       <use x="127.246094" xlink:href="#DejaVuSans-30"/>
      </g>
     </g>
    </g>
    <g id="xtick_5">
     <g id="line2d_9">
      <path clip-path="url(#pb7414489b7)" d="M 333.556364 307.584 
L 333.556364 41.472 
" style="fill:none;stroke:#b0b0b0;stroke-linecap:square;stroke-width:0.8;"/>
     </g>
     <g id="line2d_10">
      <g>
       <use style="stroke:#000000;stroke-width:0.8;" x="333.556364" xlink:href="#m43d1f732e4" y="307.584"/>
      </g>
     </g>
     <g id="text_5">
      <!-- 200 -->
      <defs>
       <path d="M 19.1875 8.296875 
L 53.609375 8.296875 
L 53.609375 0 
L 7.328125 0 
L 7.328125 8.296875 
Q 12.9375 14.109375 22.625 23.890625 
Q 32.328125 33.6875 34.8125 36.53125 
Q 39.546875 41.84375 41.421875 45.53125 
Q 43.3125 49.21875 43.3125 52.78125 
Q 43.3125 58.59375 39.234375 62.25 
Q 35.15625 65.921875 28.609375 65.921875 
Q 23.96875 65.921875 18.8125 64.3125 
Q 13.671875 62.703125 7.8125 59.421875 
L 7.8125 69.390625 
Q 13.765625 71.78125 18.9375 73 
Q 24.125 74.21875 28.421875 74.21875 
Q 39.75 74.21875 46.484375 68.546875 
Q 53.21875 62.890625 53.21875 53.421875 
Q 53.21875 48.921875 51.53125 44.890625 
Q 49.859375 40.875 45.40625 35.40625 
Q 44.1875 33.984375 37.640625 27.21875 
Q 31.109375 20.453125 19.1875 8.296875 
z
" id="DejaVuSans-32"/>
      </defs>
      <g transform="translate(324.012614 322.182437)scale(0.1 -0.1)">
       <use xlink:href="#DejaVuSans-32"/>
       <use x="63.623047" xlink:href="#DejaVuSans-30"/>
       <use x="127.246094" xlink:href="#DejaVuSans-30"/>
      </g>
     </g>
    </g>
    <g id="xtick_6">
     <g id="line2d_11">
      <path clip-path="url(#pb7414489b7)" d="M 398.487273 307.584 
L 398.487273 41.472 
" style="fill:none;stroke:#b0b0b0;stroke-linecap:square;stroke-width:0.8;"/>
     </g>
     <g id="line2d_12">
      <g>
       <use style="stroke:#000000;stroke-width:0.8;" x="398.487273" xlink:href="#m43d1f732e4" y="307.584"/>
      </g>
     </g>
     <g id="text_6">
      <!-- 250 -->
      <g transform="translate(388.943523 322.182437)scale(0.1 -0.1)">
       <use xlink:href="#DejaVuSans-32"/>
       <use x="63.623047" xlink:href="#DejaVuSans-35"/>
       <use x="127.246094" xlink:href="#DejaVuSans-30"/>
      </g>
     </g>
    </g>
   </g>
   <g id="matplotlib.axis_2">
    <g id="ytick_1">
     <g id="line2d_13">
      <path clip-path="url(#pb7414489b7)" d="M 57.6 294.84841 
L 414.72 294.84841 
" style="fill:none;stroke:#b0b0b0;stroke-linecap:square;stroke-width:0.8;"/>
     </g>
     <g id="line2d_14">
      <defs>
       <path d="M 0 0 
L -3.5 0 
" id="m40c2c0cef0" style="stroke:#000000;stroke-width:0.8;"/>
      </defs>
      <g>
       <use style="stroke:#000000;stroke-width:0.8;" x="57.6" xlink:href="#m40c2c0cef0" y="294.84841"/>
      </g>
     </g>
     <g id="text_7">
      <!-- 50 -->
      <g transform="translate(37.875 298.647629)scale(0.1 -0.1)">
       <use xlink:href="#DejaVuSans-35"/>
       <use x="63.623047" xlink:href="#DejaVuSans-30"/>
      </g>
     </g>
    </g>
    <g id="ytick_2">
     <g id="line2d_15">
      <path clip-path="url(#pb7414489b7)" d="M 57.6 246.394637 
L 414.72 246.394637 
" style="fill:none;stroke:#b0b0b0;stroke-linecap:square;stroke-width:0.8;"/>
     </g>
     <g id="line2d_16">
      <g>
       <use style="stroke:#000000;stroke-width:0.8;" x="57.6" xlink:href="#m40c2c0cef0" y="246.394637"/>
      </g>
     </g>
     <g id="text_8">
      <!-- 60 -->
      <defs>
       <path d="M 33.015625 40.375 
Q 26.375 40.375 22.484375 35.828125 
Q 18.609375 31.296875 18.609375 23.390625 
Q 18.609375 15.53125 22.484375 10.953125 
Q 26.375 6.390625 33.015625 6.390625 
Q 39.65625 6.390625 43.53125 10.953125 
Q 47.40625 15.53125 47.40625 23.390625 
Q 47.40625 31.296875 43.53125 35.828125 
Q 39.65625 40.375 33.015625 40.375 
z
M 52.59375 71.296875 
L 52.59375 62.3125 
Q 48.875 64.0625 45.09375 64.984375 
Q 41.3125 65.921875 37.59375 65.921875 
Q 27.828125 65.921875 22.671875 59.328125 
Q 17.53125 52.734375 16.796875 39.40625 
Q 19.671875 43.65625 24.015625 45.921875 
Q 28.375 48.1875 33.59375 48.1875 
Q 44.578125 48.1875 50.953125 41.515625 
Q 57.328125 34.859375 57.328125 23.390625 
Q 57.328125 12.15625 50.6875 5.359375 
Q 44.046875 -1.421875 33.015625 -1.421875 
Q 20.359375 -1.421875 13.671875 8.265625 
Q 6.984375 17.96875 6.984375 36.375 
Q 6.984375 53.65625 15.1875 63.9375 
Q 23.390625 74.21875 37.203125 74.21875 
Q 40.921875 74.21875 44.703125 73.484375 
Q 48.484375 72.75 52.59375 71.296875 
z
" id="DejaVuSans-36"/>
      </defs>
      <g transform="translate(37.875 250.193856)scale(0.1 -0.1)">
       <use xlink:href="#DejaVuSans-36"/>
       <use x="63.623047" xlink:href="#DejaVuSans-30"/>
      </g>
     </g>
    </g>
    <g id="ytick_3">
     <g id="line2d_17">
      <path clip-path="url(#pb7414489b7)" d="M 57.6 197.940863 
L 414.72 197.940863 
" style="fill:none;stroke:#b0b0b0;stroke-linecap:square;stroke-width:0.8;"/>
     </g>
     <g id="line2d_18">
      <g>
       <use style="stroke:#000000;stroke-width:0.8;" x="57.6" xlink:href="#m40c2c0cef0" y="197.940863"/>
      </g>
     </g>
     <g id="text_9">
      <!-- 70 -->
      <defs>
       <path d="M 8.203125 72.90625 
L 55.078125 72.90625 
L 55.078125 68.703125 
L 28.609375 0 
L 18.3125 0 
L 43.21875 64.59375 
L 8.203125 64.59375 
z
" id="DejaVuSans-37"/>
      </defs>
      <g transform="translate(37.875 201.740082)scale(0.1 -0.1)">
       <use xlink:href="#DejaVuSans-37"/>
       <use x="63.623047" xlink:href="#DejaVuSans-30"/>
      </g>
     </g>
    </g>
    <g id="ytick_4">
     <g id="line2d_19">
      <path clip-path="url(#pb7414489b7)" d="M 57.6 149.48709 
L 414.72 149.48709 
" style="fill:none;stroke:#b0b0b0;stroke-linecap:square;stroke-width:0.8;"/>
     </g>
     <g id="line2d_20">
      <g>
       <use style="stroke:#000000;stroke-width:0.8;" x="57.6" xlink:href="#m40c2c0cef0" y="149.48709"/>
      </g>
     </g>
     <g id="text_10">
      <!-- 80 -->
      <defs>
       <path d="M 31.78125 34.625 
Q 24.75 34.625 20.71875 30.859375 
Q 16.703125 27.09375 16.703125 20.515625 
Q 16.703125 13.921875 20.71875 10.15625 
Q 24.75 6.390625 31.78125 6.390625 
Q 38.8125 6.390625 42.859375 10.171875 
Q 46.921875 13.96875 46.921875 20.515625 
Q 46.921875 27.09375 42.890625 30.859375 
Q 38.875 34.625 31.78125 34.625 
z
M 21.921875 38.8125 
Q 15.578125 40.375 12.03125 44.71875 
Q 8.5 49.078125 8.5 55.328125 
Q 8.5 64.0625 14.71875 69.140625 
Q 20.953125 74.21875 31.78125 74.21875 
Q 42.671875 74.21875 48.875 69.140625 
Q 55.078125 64.0625 55.078125 55.328125 
Q 55.078125 49.078125 51.53125 44.71875 
Q 48 40.375 41.703125 38.8125 
Q 48.828125 37.15625 52.796875 32.3125 
Q 56.78125 27.484375 56.78125 20.515625 
Q 56.78125 9.90625 50.3125 4.234375 
Q 43.84375 -1.421875 31.78125 -1.421875 
Q 19.734375 -1.421875 13.25 4.234375 
Q 6.78125 9.90625 6.78125 20.515625 
Q 6.78125 27.484375 10.78125 32.3125 
Q 14.796875 37.15625 21.921875 38.8125 
z
M 18.3125 54.390625 
Q 18.3125 48.734375 21.84375 45.5625 
Q 25.390625 42.390625 31.78125 42.390625 
Q 38.140625 42.390625 41.71875 45.5625 
Q 45.3125 48.734375 45.3125 54.390625 
Q 45.3125 60.0625 41.71875 63.234375 
Q 38.140625 66.40625 31.78125 66.40625 
Q 25.390625 66.40625 21.84375 63.234375 
Q 18.3125 60.0625 18.3125 54.390625 
z
" id="DejaVuSans-38"/>
      </defs>
      <g transform="translate(37.875 153.286309)scale(0.1 -0.1)">
       <use xlink:href="#DejaVuSans-38"/>
       <use x="63.623047" xlink:href="#DejaVuSans-30"/>
      </g>
     </g>
    </g>
    <g id="ytick_5">
     <g id="line2d_21">
      <path clip-path="url(#pb7414489b7)" d="M 57.6 101.033316 
L 414.72 101.033316 
" style="fill:none;stroke:#b0b0b0;stroke-linecap:square;stroke-width:0.8;"/>
     </g>
     <g id="line2d_22">
      <g>
       <use style="stroke:#000000;stroke-width:0.8;" x="57.6" xlink:href="#m40c2c0cef0" y="101.033316"/>
      </g>
     </g>
     <g id="text_11">
      <!-- 90 -->
      <defs>
       <path d="M 10.984375 1.515625 
L 10.984375 10.5 
Q 14.703125 8.734375 18.5 7.8125 
Q 22.3125 6.890625 25.984375 6.890625 
Q 35.75 6.890625 40.890625 13.453125 
Q 46.046875 20.015625 46.78125 33.40625 
Q 43.953125 29.203125 39.59375 26.953125 
Q 35.25 24.703125 29.984375 24.703125 
Q 19.046875 24.703125 12.671875 31.3125 
Q 6.296875 37.9375 6.296875 49.421875 
Q 6.296875 60.640625 12.9375 67.421875 
Q 19.578125 74.21875 30.609375 74.21875 
Q 43.265625 74.21875 49.921875 64.515625 
Q 56.59375 54.828125 56.59375 36.375 
Q 56.59375 19.140625 48.40625 8.859375 
Q 40.234375 -1.421875 26.421875 -1.421875 
Q 22.703125 -1.421875 18.890625 -0.6875 
Q 15.09375 0.046875 10.984375 1.515625 
z
M 30.609375 32.421875 
Q 37.25 32.421875 41.125 36.953125 
Q 45.015625 41.5 45.015625 49.421875 
Q 45.015625 57.28125 41.125 61.84375 
Q 37.25 66.40625 30.609375 66.40625 
Q 23.96875 66.40625 20.09375 61.84375 
Q 16.21875 57.28125 16.21875 49.421875 
Q 16.21875 41.5 20.09375 36.953125 
Q 23.96875 32.421875 30.609375 32.421875 
z
" id="DejaVuSans-39"/>
      </defs>
      <g transform="translate(37.875 104.832535)scale(0.1 -0.1)">
       <use xlink:href="#DejaVuSans-39"/>
       <use x="63.623047" xlink:href="#DejaVuSans-30"/>
      </g>
     </g>
    </g>
    <g id="ytick_6">
     <g id="line2d_23">
      <path clip-path="url(#pb7414489b7)" d="M 57.6 52.579543 
L 414.72 52.579543 
" style="fill:none;stroke:#b0b0b0;stroke-linecap:square;stroke-width:0.8;"/>
     </g>
     <g id="line2d_24">
      <g>
       <use style="stroke:#000000;stroke-width:0.8;" x="57.6" xlink:href="#m40c2c0cef0" y="52.579543"/>
      </g>
     </g>
     <g id="text_12">
      <!-- 100 -->
      <g transform="translate(31.5125 56.378762)scale(0.1 -0.1)">
       <use xlink:href="#DejaVuSans-31"/>
       <use x="63.623047" xlink:href="#DejaVuSans-30"/>
       <use x="127.246094" xlink:href="#DejaVuSans-30"/>
      </g>
     </g>
    </g>
    <g id="text_13">
     <!-- Accuracy -->
     <defs>
      <path d="M 34.1875 63.1875 
L 20.796875 26.90625 
L 47.609375 26.90625 
z
M 28.609375 72.90625 
L 39.796875 72.90625 
L 67.578125 0 
L 57.328125 0 
L 50.6875 18.703125 
L 17.828125 18.703125 
L 11.1875 0 
L 0.78125 0 
z
" id="DejaVuSans-41"/>
      <path d="M 48.78125 52.59375 
L 48.78125 44.1875 
Q 44.96875 46.296875 41.140625 47.34375 
Q 37.3125 48.390625 33.40625 48.390625 
Q 24.65625 48.390625 19.8125 42.84375 
Q 14.984375 37.3125 14.984375 27.296875 
Q 14.984375 17.28125 19.8125 11.734375 
Q 24.65625 6.203125 33.40625 6.203125 
Q 37.3125 6.203125 41.140625 7.25 
Q 44.96875 8.296875 48.78125 10.40625 
L 48.78125 2.09375 
Q 45.015625 0.34375 40.984375 -0.53125 
Q 36.96875 -1.421875 32.421875 -1.421875 
Q 20.0625 -1.421875 12.78125 6.34375 
Q 5.515625 14.109375 5.515625 27.296875 
Q 5.515625 40.671875 12.859375 48.328125 
Q 20.21875 56 33.015625 56 
Q 37.15625 56 41.109375 55.140625 
Q 45.0625 54.296875 48.78125 52.59375 
z
" id="DejaVuSans-63"/>
      <path d="M 8.5 21.578125 
L 8.5 54.6875 
L 17.484375 54.6875 
L 17.484375 21.921875 
Q 17.484375 14.15625 20.5 10.265625 
Q 23.53125 6.390625 29.59375 6.390625 
Q 36.859375 6.390625 41.078125 11.03125 
Q 45.3125 15.671875 45.3125 23.6875 
L 45.3125 54.6875 
L 54.296875 54.6875 
L 54.296875 0 
L 45.3125 0 
L 45.3125 8.40625 
Q 42.046875 3.421875 37.71875 1 
Q 33.40625 -1.421875 27.6875 -1.421875 
Q 18.265625 -1.421875 13.375 4.4375 
Q 8.5 10.296875 8.5 21.578125 
z
M 31.109375 56 
z
" id="DejaVuSans-75"/>
      <path d="M 41.109375 46.296875 
Q 39.59375 47.171875 37.8125 47.578125 
Q 36.03125 48 33.890625 48 
Q 26.265625 48 22.1875 43.046875 
Q 18.109375 38.09375 18.109375 28.8125 
L 18.109375 0 
L 9.078125 0 
L 9.078125 54.6875 
L 18.109375 54.6875 
L 18.109375 46.1875 
Q 20.953125 51.171875 25.484375 53.578125 
Q 30.03125 56 36.53125 56 
Q 37.453125 56 38.578125 55.875 
Q 39.703125 55.765625 41.0625 55.515625 
z
" id="DejaVuSans-72"/>
      <path d="M 34.28125 27.484375 
Q 23.390625 27.484375 19.1875 25 
Q 14.984375 22.515625 14.984375 16.5 
Q 14.984375 11.71875 18.140625 8.90625 
Q 21.296875 6.109375 26.703125 6.109375 
Q 34.1875 6.109375 38.703125 11.40625 
Q 43.21875 16.703125 43.21875 25.484375 
L 43.21875 27.484375 
z
M 52.203125 31.203125 
L 52.203125 0 
L 43.21875 0 
L 43.21875 8.296875 
Q 40.140625 3.328125 35.546875 0.953125 
Q 30.953125 -1.421875 24.3125 -1.421875 
Q 15.921875 -1.421875 10.953125 3.296875 
Q 6 8.015625 6 15.921875 
Q 6 25.140625 12.171875 29.828125 
Q 18.359375 34.515625 30.609375 34.515625 
L 43.21875 34.515625 
L 43.21875 35.40625 
Q 43.21875 41.609375 39.140625 45 
Q 35.0625 48.390625 27.6875 48.390625 
Q 23 48.390625 18.546875 47.265625 
Q 14.109375 46.140625 10.015625 43.890625 
L 10.015625 52.203125 
Q 14.9375 54.109375 19.578125 55.046875 
Q 24.21875 56 28.609375 56 
Q 40.484375 56 46.34375 49.84375 
Q 52.203125 43.703125 52.203125 31.203125 
z
" id="DejaVuSans-61"/>
      <path d="M 32.171875 -5.078125 
Q 28.375 -14.84375 24.75 -17.8125 
Q 21.140625 -20.796875 15.09375 -20.796875 
L 7.90625 -20.796875 
L 7.90625 -13.28125 
L 13.1875 -13.28125 
Q 16.890625 -13.28125 18.9375 -11.515625 
Q 21 -9.765625 23.484375 -3.21875 
L 25.09375 0.875 
L 2.984375 54.6875 
L 12.5 54.6875 
L 29.59375 11.921875 
L 46.6875 54.6875 
L 56.203125 54.6875 
z
" id="DejaVuSans-79"/>
     </defs>
     <g transform="translate(25.432812 197.442844)rotate(-90)scale(0.1 -0.1)">
      <use xlink:href="#DejaVuSans-41"/>
      <use x="68.392578" xlink:href="#DejaVuSans-63"/>
      <use x="123.373047" xlink:href="#DejaVuSans-63"/>
      <use x="178.353516" xlink:href="#DejaVuSans-75"/>
      <use x="241.732422" xlink:href="#DejaVuSans-72"/>
      <use x="282.845703" xlink:href="#DejaVuSans-61"/>
      <use x="344.125" xlink:href="#DejaVuSans-63"/>
      <use x="399.105469" xlink:href="#DejaVuSans-79"/>
     </g>
    </g>
   </g>
   <g id="line2d_25">
    <path clip-path="url(#pb7414489b7)" d="M 73.832727 295.488 
L 75.131345 212.864626 
L 76.429964 183.685763 
L 77.728582 164.149202 
L 79.0272 150.76627 
L 80.325818 141.385619 
L 81.624436 134.892813 
L 82.923055 127.372788 
L 84.221673 122.885968 
L 85.520291 119.155028 
L 86.818909 114.765116 
L 89.416145 107.991278 
L 90.714764 106.237252 
L 92.013382 105.219722 
L 93.312 103.330025 
L 94.610618 99.899498 
L 95.909236 97.757841 
L 97.207855 96.594951 
L 98.506473 93.76525 
L 99.805091 92.22442 
L 101.103709 90.499466 
L 102.402327 89.695133 
L 103.700945 89.326885 
L 104.999564 87.60193 
L 106.298182 85.343985 
L 107.5968 85.440892 
L 108.895418 84.89821 
L 110.194036 82.59181 
L 111.492655 82.20418 
L 112.791273 80.382318 
L 114.089891 80.41139 
L 115.388509 79.849327 
L 116.687127 78.104991 
L 117.985745 78.715508 
L 119.284364 77.794887 
L 120.582982 77.281277 
L 123.180218 75.129929 
L 124.478836 74.771371 
L 125.777455 75.023331 
L 127.076073 73.715079 
L 128.374691 73.443738 
L 129.673309 72.484353 
L 130.971927 72.668477 
L 132.270545 72.251775 
L 133.569164 71.583113 
L 134.867782 71.641257 
L 136.1664 70.342696 
L 137.465018 70.623728 
L 138.763636 69.548054 
L 140.062255 69.189497 
L 141.360873 69.75156 
L 142.659491 69.015063 
L 143.958109 68.491762 
L 145.256727 68.598361 
L 146.555345 67.018768 
L 147.853964 67.745574 
L 149.152582 66.650519 
L 150.4512 66.602065 
L 151.749818 67.067221 
L 153.048436 67.280418 
L 154.347055 66.40825 
L 155.645673 65.89464 
L 158.242909 65.943094 
L 159.541527 65.313195 
L 160.840145 65.458556 
L 162.138764 64.111541 
L 163.437382 65.012781 
L 164.736 63.636694 
L 166.034618 64.654223 
L 167.333236 63.345971 
L 168.631855 64.499171 
L 169.930473 63.782055 
L 171.229091 63.762674 
L 172.527709 62.531948 
L 173.826327 63.229682 
L 175.124945 63.694839 
L 176.423564 62.473804 
L 177.722182 62.832361 
L 179.0208 62.386587 
L 180.319418 62.745145 
L 181.618036 61.669471 
L 182.916655 61.863286 
L 184.215273 62.250916 
L 185.513891 62.154009 
L 186.812509 60.894211 
L 188.111127 61.621017 
L 189.409745 61.475656 
L 190.708364 62.057101 
L 192.006982 61.591945 
L 193.3056 60.593797 
L 194.604218 61.320604 
L 195.902836 61.000809 
L 197.201455 60.390291 
L 198.500073 60.932974 
L 201.097309 60.593797 
L 202.395927 61.000809 
L 204.993164 60.24493 
L 206.291782 59.440597 
L 207.5904 60.283693 
L 208.889018 60.089878 
L 210.187636 59.644103 
L 211.486255 59.624722 
L 212.784873 60.719777 
L 214.083491 59.644103 
L 215.382109 59.392144 
L 216.680727 59.459979 
L 219.277964 60.399982 
L 220.576582 59.576268 
L 223.173818 58.752554 
L 224.472436 58.96575 
L 225.771055 59.014204 
L 227.069673 59.615031 
L 228.368291 58.519976 
L 229.666909 59.401834 
L 230.965527 59.440597 
L 232.264145 59.353381 
L 234.861382 58.684718 
L 236.16 58.461831 
L 237.458618 58.587811 
L 238.757236 57.899767 
L 240.055855 56.203885 
L 241.354473 55.428625 
L 242.653091 55.215428 
L 245.250327 55.070067 
L 247.847564 54.798726 
L 249.146182 54.798726 
L 250.4448 55.128212 
L 251.743418 54.546766 
L 253.042036 54.362642 
L 254.340655 54.46924 
L 255.639273 54.323879 
L 256.937891 54.498312 
L 258.236509 54.411096 
L 259.535127 54.566148 
L 262.132364 54.498312 
L 263.430982 54.168827 
L 264.7296 54.34326 
L 266.028218 54.304497 
L 267.326836 54.546766 
L 268.625455 54.323879 
L 269.924073 54.246353 
L 271.222691 54.023465 
L 272.521309 54.20759 
L 273.819927 54.130064 
L 275.118545 54.304497 
L 281.611636 54.275425 
L 282.910255 53.878104 
L 284.208873 54.130064 
L 288.104727 53.878104 
L 294.597818 54.110682 
L 295.896436 53.916867 
L 298.493673 54.052538 
L 299.792291 54.071919 
L 302.389527 53.82965 
L 303.688145 53.887795 
L 304.986764 53.81996 
L 306.285382 53.945939 
L 307.584 53.790887 
L 308.882618 53.849032 
L 310.181236 54.062228 
L 311.479855 53.839341 
L 312.778473 53.761815 
L 314.077091 54.023465 
L 317.972945 54.071919 
L 319.271564 53.790887 
L 323.167418 53.975012 
L 325.764655 53.761815 
L 327.063273 53.965321 
L 328.361891 53.742434 
L 329.660509 53.994393 
L 332.257745 53.674598 
L 333.556364 53.907176 
L 336.1536 53.684289 
L 340.049455 53.771506 
L 341.348073 53.635835 
L 342.646691 53.771506 
L 343.945309 54.023465 
L 345.243927 53.761815 
L 347.841164 53.684289 
L 351.737018 53.839341 
L 353.035636 53.626145 
L 354.334255 53.878104 
L 355.632873 53.645526 
L 356.931491 53.800578 
L 359.528727 53.606763 
L 362.125964 53.635835 
L 363.424582 53.771506 
L 364.7232 53.645526 
L 366.021818 53.742434 
L 367.320436 53.684289 
L 369.917673 53.878104 
L 372.514909 53.635835 
L 373.813527 53.849032 
L 375.112145 53.82965 
L 376.410764 53.684289 
L 379.008 53.810269 
L 380.306618 53.674598 
L 381.605236 53.868413 
L 386.799709 53.635835 
L 389.396945 53.761815 
L 390.695564 53.703671 
L 391.994182 53.887795 
L 393.2928 53.568 
L 394.591418 53.771506 
L 398.487273 53.655217 
L 398.487273 53.655217 
" style="fill:none;stroke:#ff6347;stroke-linecap:square;stroke-width:2;"/>
   </g>
   <g id="line2d_26">
    <path clip-path="url(#pb7414489b7)" d="M 73.832727 252.838989 
L 75.131345 201.768711 
L 76.429964 208.746055 
L 77.728582 152.685039 
L 79.0272 162.569609 
L 80.325818 147.064401 
L 81.624436 157.918046 
L 82.923055 130.154034 
L 84.221673 137.858184 
L 85.520291 125.405564 
L 86.818909 128.215883 
L 88.117527 124.824119 
L 89.416145 124.097313 
L 90.714764 120.996271 
L 92.013382 122.837515 
L 93.312 115.036457 
L 94.610618 114.212743 
L 95.909236 114.745734 
L 97.207855 121.23854 
L 98.506473 117.992137 
L 99.805091 111.838508 
L 101.103709 116.296255 
L 102.402327 116.926154 
L 103.700945 113.970474 
L 104.999564 111.547785 
L 106.298182 112.323046 
L 107.5968 110.142626 
L 108.895418 111.983869 
L 110.194036 109.318912 
L 111.492655 109.803449 
L 112.791273 108.592105 
L 114.089891 105.636425 
L 115.388509 111.499332 
L 116.687127 113.292121 
L 117.985745 105.491064 
L 119.284364 107.768391 
L 120.582982 114.406558 
L 121.8816 108.301382 
L 123.180218 106.896223 
L 124.478836 103.552913 
L 125.777455 104.473534 
L 127.076073 112.565315 
L 128.374691 104.861165 
L 130.971927 109.125097 
L 132.270545 106.702408 
L 133.569164 103.988997 
L 134.867782 104.570442 
L 136.1664 104.182812 
L 137.465018 102.390022 
L 138.763636 101.760123 
L 140.062255 102.196207 
L 141.360873 106.896223 
L 142.659491 102.244661 
L 143.958109 100.839501 
L 145.256727 101.857031 
L 146.555345 101.372493 
L 147.853964 102.099299 
L 149.152582 101.08177 
L 150.4512 101.566308 
L 151.749818 102.680745 
L 153.048436 98.465266 
L 154.347055 101.857031 
L 155.645673 100.597232 
L 158.242909 100.403417 
L 159.541527 101.711669 
L 160.840145 99.870426 
L 162.138764 98.998258 
L 163.437382 99.385888 
L 164.736 97.835367 
L 166.034618 99.337434 
L 167.333236 100.500325 
L 168.631855 99.482796 
L 169.930473 97.544645 
L 171.229091 99.91888 
L 172.527709 102.923014 
L 173.826327 103.310644 
L 175.124945 101.614762 
L 176.423564 100.258056 
L 177.722182 100.839501 
L 179.0208 98.90135 
L 180.319418 98.804443 
L 181.618036 102.777652 
L 182.916655 101.420947 
L 184.215273 100.742594 
L 185.513891 101.033316 
L 186.812509 100.258056 
L 188.111127 101.033316 
L 189.409745 101.372493 
L 190.708364 99.385888 
L 192.006982 99.531249 
L 193.3056 97.205468 
L 194.604218 102.002392 
L 195.902836 98.465266 
L 197.201455 100.887955 
L 198.500073 97.641552 
L 199.798691 101.324039 
L 201.097309 98.949804 
L 202.395927 99.095166 
L 203.694545 98.562174 
L 204.993164 99.482796 
L 206.291782 97.593099 
L 207.5904 97.399283 
L 208.889018 96.527116 
L 210.187636 97.011653 
L 211.486255 98.562174 
L 214.083491 100.645686 
L 215.382109 99.337434 
L 217.979345 98.077636 
L 219.277964 97.980729 
L 220.576582 98.998258 
L 221.8752 97.786914 
L 223.173818 98.271451 
L 224.472436 96.914746 
L 225.771055 97.302376 
L 227.069673 98.029183 
L 228.368291 98.90135 
L 229.666909 98.659082 
L 232.264145 98.852897 
L 233.562764 98.319905 
L 234.861382 98.659082 
L 236.16 96.672477 
L 237.458618 98.610628 
L 238.757236 99.676611 
L 240.055855 94.78278 
L 241.354473 95.412679 
L 242.653091 94.298242 
L 243.951709 95.218864 
L 245.250327 95.218864 
L 246.548945 94.78278 
L 247.847564 95.315771 
L 249.146182 94.298242 
L 250.4448 94.734326 
L 251.743418 95.025049 
L 253.042036 94.685872 
L 254.340655 93.910612 
L 255.639273 94.588965 
L 256.937891 94.055973 
L 258.236509 94.685872 
L 260.833745 94.78278 
L 262.132364 94.395149 
L 263.430982 93.474528 
L 264.7296 94.201334 
L 266.028218 94.055973 
L 267.326836 94.540511 
L 268.625455 93.813704 
L 269.924073 93.910612 
L 271.222691 94.298242 
L 272.521309 94.007519 
L 273.819927 94.540511 
L 275.118545 94.298242 
L 276.417164 93.813704 
L 277.715782 94.055973 
L 279.0144 93.135351 
L 280.313018 93.668343 
L 281.611636 93.329166 
L 282.910255 93.619889 
L 284.208873 93.474528 
L 285.507491 93.76525 
L 286.806109 93.76525 
L 288.104727 93.474528 
L 289.403345 93.571435 
L 290.701964 94.104427 
L 293.2992 93.813704 
L 294.597818 93.668343 
L 295.896436 93.910612 
L 297.195055 93.619889 
L 298.493673 93.668343 
L 299.792291 93.232259 
L 301.090909 92.98999 
L 304.986764 93.37762 
L 306.285382 93.813704 
L 307.584 94.055973 
L 311.479855 93.37762 
L 312.778473 93.619889 
L 314.077091 93.522982 
L 315.375709 93.76525 
L 316.674327 93.474528 
L 317.972945 93.474528 
L 319.271564 93.619889 
L 321.8688 93.135351 
L 323.167418 94.104427 
L 324.466036 93.232259 
L 325.764655 93.232259 
L 327.063273 92.553906 
L 328.361891 93.571435 
L 330.959127 93.038444 
L 332.257745 93.959066 
L 333.556364 93.522982 
L 334.854982 92.60236 
L 336.1536 93.135351 
L 337.452218 93.280713 
L 338.750836 93.571435 
L 340.049455 92.893083 
L 341.348073 93.668343 
L 342.646691 92.844629 
L 343.945309 92.699267 
L 345.243927 93.086898 
L 346.542545 93.280713 
L 347.841164 92.747721 
L 350.4384 93.038444 
L 351.737018 93.522982 
L 353.035636 93.135351 
L 354.334255 93.280713 
L 355.632873 92.941536 
L 356.931491 92.98999 
L 358.230109 93.474528 
L 359.528727 93.038444 
L 360.827345 92.844629 
L 362.125964 93.135351 
L 363.424582 92.699267 
L 364.7232 93.329166 
L 366.021818 92.98999 
L 367.320436 92.844629 
L 368.619055 93.135351 
L 369.917673 92.98999 
L 371.216291 92.699267 
L 372.514909 93.038444 
L 373.813527 93.232259 
L 375.112145 92.747721 
L 376.410764 93.086898 
L 379.008 93.280713 
L 380.306618 92.98999 
L 381.605236 93.813704 
L 382.903855 93.135351 
L 384.202473 92.844629 
L 385.501091 94.007519 
L 386.799709 93.183805 
L 388.098327 92.893083 
L 389.396945 93.135351 
L 390.695564 93.619889 
L 391.994182 93.571435 
L 393.2928 93.862158 
L 395.890036 93.232259 
L 397.188655 93.716797 
L 398.487273 93.135351 
L 398.487273 93.135351 
" style="fill:none;stroke:#4682b4;stroke-linecap:square;stroke-width:2;"/>
   </g>
   <g id="patch_3">
    <path d="M 57.6 307.584 
L 57.6 41.472 
" style="fill:none;stroke:#000000;stroke-linecap:square;stroke-linejoin:miter;stroke-width:0.8;"/>
   </g>
   <g id="patch_4">
    <path d="M 414.72 307.584 
L 414.72 41.472 
" style="fill:none;stroke:#000000;stroke-linecap:square;stroke-linejoin:miter;stroke-width:0.8;"/>
   </g>
   <g id="patch_5">
    <path d="M 57.6 307.584 
L 414.72 307.584 
" style="fill:none;stroke:#000000;stroke-linecap:square;stroke-linejoin:miter;stroke-width:0.8;"/>
   </g>
   <g id="patch_6">
    <path d="M 57.6 41.472 
L 414.72 41.472 
" style="fill:none;stroke:#000000;stroke-linecap:square;stroke-linejoin:miter;stroke-width:0.8;"/>
   </g>
   <g id="legend_1">
    <g id="patch_7">
     <path d="M 330.32 302.584 
L 407.72 302.584 
Q 409.72 302.584 409.72 300.584 
L 409.72 271.6715 
Q 409.72 269.6715 407.72 269.6715 
L 330.32 269.6715 
Q 328.32 269.6715 328.32 271.6715 
L 328.32 300.584 
Q 328.32 302.584 330.32 302.584 
z
" style="fill:#ffffff;opacity:0.8;stroke:#cccccc;stroke-linejoin:miter;"/>
    </g>
    <g id="line2d_27">
     <path d="M 332.32 277.769937 
L 352.32 277.769937 
" style="fill:none;stroke:#ff6347;stroke-linecap:square;stroke-width:2;"/>
    </g>
    <g id="line2d_28"/>
    <g id="text_14">
     <!-- train_acc -->
     <defs>
      <path d="M 18.3125 70.21875 
L 18.3125 54.6875 
L 36.8125 54.6875 
L 36.8125 47.703125 
L 18.3125 47.703125 
L 18.3125 18.015625 
Q 18.3125 11.328125 20.140625 9.421875 
Q 21.96875 7.515625 27.59375 7.515625 
L 36.8125 7.515625 
L 36.8125 0 
L 27.59375 0 
Q 17.1875 0 13.234375 3.875 
Q 9.28125 7.765625 9.28125 18.015625 
L 9.28125 47.703125 
L 2.6875 47.703125 
L 2.6875 54.6875 
L 9.28125 54.6875 
L 9.28125 70.21875 
z
" id="DejaVuSans-74"/>
      <path d="M 9.421875 54.6875 
L 18.40625 54.6875 
L 18.40625 0 
L 9.421875 0 
z
M 9.421875 75.984375 
L 18.40625 75.984375 
L 18.40625 64.59375 
L 9.421875 64.59375 
z
" id="DejaVuSans-69"/>
      <path d="M 54.890625 33.015625 
L 54.890625 0 
L 45.90625 0 
L 45.90625 32.71875 
Q 45.90625 40.484375 42.875 44.328125 
Q 39.84375 48.1875 33.796875 48.1875 
Q 26.515625 48.1875 22.3125 43.546875 
Q 18.109375 38.921875 18.109375 30.90625 
L 18.109375 0 
L 9.078125 0 
L 9.078125 54.6875 
L 18.109375 54.6875 
L 18.109375 46.1875 
Q 21.34375 51.125 25.703125 53.5625 
Q 30.078125 56 35.796875 56 
Q 45.21875 56 50.046875 50.171875 
Q 54.890625 44.34375 54.890625 33.015625 
z
" id="DejaVuSans-6e"/>
      <path d="M 50.984375 -16.609375 
L 50.984375 -23.578125 
L -0.984375 -23.578125 
L -0.984375 -16.609375 
z
" id="DejaVuSans-5f"/>
     </defs>
     <g transform="translate(360.32 281.269937)scale(0.1 -0.1)">
      <use xlink:href="#DejaVuSans-74"/>
      <use x="39.208984" xlink:href="#DejaVuSans-72"/>
      <use x="80.322266" xlink:href="#DejaVuSans-61"/>
      <use x="141.601562" xlink:href="#DejaVuSans-69"/>
      <use x="169.384766" xlink:href="#DejaVuSans-6e"/>
      <use x="232.763672" xlink:href="#DejaVuSans-5f"/>
      <use x="282.763672" xlink:href="#DejaVuSans-61"/>
      <use x="344.042969" xlink:href="#DejaVuSans-63"/>
      <use x="399.023438" xlink:href="#DejaVuSans-63"/>
     </g>
    </g>
    <g id="line2d_29">
     <path d="M 332.32 292.726187 
L 352.32 292.726187 
" style="fill:none;stroke:#4682b4;stroke-linecap:square;stroke-width:2;"/>
    </g>
    <g id="line2d_30"/>
    <g id="text_15">
     <!-- test_acc -->
     <defs>
      <path d="M 56.203125 29.59375 
L 56.203125 25.203125 
L 14.890625 25.203125 
Q 15.484375 15.921875 20.484375 11.0625 
Q 25.484375 6.203125 34.421875 6.203125 
Q 39.59375 6.203125 44.453125 7.46875 
Q 49.3125 8.734375 54.109375 11.28125 
L 54.109375 2.78125 
Q 49.265625 0.734375 44.1875 -0.34375 
Q 39.109375 -1.421875 33.890625 -1.421875 
Q 20.796875 -1.421875 13.15625 6.1875 
Q 5.515625 13.8125 5.515625 26.8125 
Q 5.515625 40.234375 12.765625 48.109375 
Q 20.015625 56 32.328125 56 
Q 43.359375 56 49.78125 48.890625 
Q 56.203125 41.796875 56.203125 29.59375 
z
M 47.21875 32.234375 
Q 47.125 39.59375 43.09375 43.984375 
Q 39.0625 48.390625 32.421875 48.390625 
Q 24.90625 48.390625 20.390625 44.140625 
Q 15.875 39.890625 15.1875 32.171875 
z
" id="DejaVuSans-65"/>
      <path d="M 44.28125 53.078125 
L 44.28125 44.578125 
Q 40.484375 46.53125 36.375 47.5 
Q 32.28125 48.484375 27.875 48.484375 
Q 21.1875 48.484375 17.84375 46.4375 
Q 14.5 44.390625 14.5 40.28125 
Q 14.5 37.15625 16.890625 35.375 
Q 19.28125 33.59375 26.515625 31.984375 
L 29.59375 31.296875 
Q 39.15625 29.25 43.1875 25.515625 
Q 47.21875 21.78125 47.21875 15.09375 
Q 47.21875 7.46875 41.1875 3.015625 
Q 35.15625 -1.421875 24.609375 -1.421875 
Q 20.21875 -1.421875 15.453125 -0.5625 
Q 10.6875 0.296875 5.421875 2 
L 5.421875 11.28125 
Q 10.40625 8.6875 15.234375 7.390625 
Q 20.0625 6.109375 24.8125 6.109375 
Q 31.15625 6.109375 34.5625 8.28125 
Q 37.984375 10.453125 37.984375 14.40625 
Q 37.984375 18.0625 35.515625 20.015625 
Q 33.0625 21.96875 24.703125 23.78125 
L 21.578125 24.515625 
Q 13.234375 26.265625 9.515625 29.90625 
Q 5.8125 33.546875 5.8125 39.890625 
Q 5.8125 47.609375 11.28125 51.796875 
Q 16.75 56 26.8125 56 
Q 31.78125 56 36.171875 55.265625 
Q 40.578125 54.546875 44.28125 53.078125 
z
" id="DejaVuSans-73"/>
     </defs>
     <g transform="translate(360.32 296.226187)scale(0.1 -0.1)">
      <use xlink:href="#DejaVuSans-74"/>
      <use x="39.208984" xlink:href="#DejaVuSans-65"/>
      <use x="100.732422" xlink:href="#DejaVuSans-73"/>
      <use x="152.832031" xlink:href="#DejaVuSans-74"/>
      <use x="192.041016" xlink:href="#DejaVuSans-5f"/>
      <use x="242.041016" xlink:href="#DejaVuSans-61"/>
      <use x="303.320312" xlink:href="#DejaVuSans-63"/>
      <use x="358.300781" xlink:href="#DejaVuSans-63"/>
     </g>
    </g>
   </g>
  </g>
  <g id="axes_2">
   <g id="matplotlib.axis_3">
    <g id="ytick_7">
     <g id="line2d_31">
      <defs>
       <path d="M 0 0 
L 3.5 0 
" id="m49e4b558cc" style="stroke:#000000;stroke-width:0.8;"/>
      </defs>
      <g>
       <use style="stroke:#000000;stroke-width:0.8;" x="414.72" xlink:href="#m49e4b558cc" y="296.675432"/>
      </g>
     </g>
     <g id="text_16">
      <!-- 0.0 -->
      <defs>
       <path d="M 10.6875 12.40625 
L 21 12.40625 
L 21 0 
L 10.6875 0 
z
" id="DejaVuSans-2e"/>
      </defs>
      <g transform="translate(421.72 300.474651)scale(0.1 -0.1)">
       <use xlink:href="#DejaVuSans-30"/>
       <use x="63.623047" xlink:href="#DejaVuSans-2e"/>
       <use x="95.410156" xlink:href="#DejaVuSans-30"/>
      </g>
     </g>
    </g>
    <g id="ytick_8">
     <g id="line2d_32">
      <g>
       <use style="stroke:#000000;stroke-width:0.8;" x="414.72" xlink:href="#m49e4b558cc" y="261.398887"/>
      </g>
     </g>
     <g id="text_17">
      <!-- 0.2 -->
      <g transform="translate(421.72 265.198105)scale(0.1 -0.1)">
       <use xlink:href="#DejaVuSans-30"/>
       <use x="63.623047" xlink:href="#DejaVuSans-2e"/>
       <use x="95.410156" xlink:href="#DejaVuSans-32"/>
      </g>
     </g>
    </g>
    <g id="ytick_9">
     <g id="line2d_33">
      <g>
       <use style="stroke:#000000;stroke-width:0.8;" x="414.72" xlink:href="#m49e4b558cc" y="226.122341"/>
      </g>
     </g>
     <g id="text_18">
      <!-- 0.4 -->
      <defs>
       <path d="M 37.796875 64.3125 
L 12.890625 25.390625 
L 37.796875 25.390625 
z
M 35.203125 72.90625 
L 47.609375 72.90625 
L 47.609375 25.390625 
L 58.015625 25.390625 
L 58.015625 17.1875 
L 47.609375 17.1875 
L 47.609375 0 
L 37.796875 0 
L 37.796875 17.1875 
L 4.890625 17.1875 
L 4.890625 26.703125 
z
" id="DejaVuSans-34"/>
      </defs>
      <g transform="translate(421.72 229.92156)scale(0.1 -0.1)">
       <use xlink:href="#DejaVuSans-30"/>
       <use x="63.623047" xlink:href="#DejaVuSans-2e"/>
       <use x="95.410156" xlink:href="#DejaVuSans-34"/>
      </g>
     </g>
    </g>
    <g id="ytick_10">
     <g id="line2d_34">
      <g>
       <use style="stroke:#000000;stroke-width:0.8;" x="414.72" xlink:href="#m49e4b558cc" y="190.845796"/>
      </g>
     </g>
     <g id="text_19">
      <!-- 0.6 -->
      <g transform="translate(421.72 194.645015)scale(0.1 -0.1)">
       <use xlink:href="#DejaVuSans-30"/>
       <use x="63.623047" xlink:href="#DejaVuSans-2e"/>
       <use x="95.410156" xlink:href="#DejaVuSans-36"/>
      </g>
     </g>
    </g>
    <g id="ytick_11">
     <g id="line2d_35">
      <g>
       <use style="stroke:#000000;stroke-width:0.8;" x="414.72" xlink:href="#m49e4b558cc" y="155.56925"/>
      </g>
     </g>
     <g id="text_20">
      <!-- 0.8 -->
      <g transform="translate(421.72 159.368469)scale(0.1 -0.1)">
       <use xlink:href="#DejaVuSans-30"/>
       <use x="63.623047" xlink:href="#DejaVuSans-2e"/>
       <use x="95.410156" xlink:href="#DejaVuSans-38"/>
      </g>
     </g>
    </g>
    <g id="ytick_12">
     <g id="line2d_36">
      <g>
       <use style="stroke:#000000;stroke-width:0.8;" x="414.72" xlink:href="#m49e4b558cc" y="120.292705"/>
      </g>
     </g>
     <g id="text_21">
      <!-- 1.0 -->
      <g transform="translate(421.72 124.091924)scale(0.1 -0.1)">
       <use xlink:href="#DejaVuSans-31"/>
       <use x="63.623047" xlink:href="#DejaVuSans-2e"/>
       <use x="95.410156" xlink:href="#DejaVuSans-30"/>
      </g>
     </g>
    </g>
    <g id="ytick_13">
     <g id="line2d_37">
      <g>
       <use style="stroke:#000000;stroke-width:0.8;" x="414.72" xlink:href="#m49e4b558cc" y="85.016159"/>
      </g>
     </g>
     <g id="text_22">
      <!-- 1.2 -->
      <g transform="translate(421.72 88.815378)scale(0.1 -0.1)">
       <use xlink:href="#DejaVuSans-31"/>
       <use x="63.623047" xlink:href="#DejaVuSans-2e"/>
       <use x="95.410156" xlink:href="#DejaVuSans-32"/>
      </g>
     </g>
    </g>
    <g id="ytick_14">
     <g id="line2d_38">
      <g>
       <use style="stroke:#000000;stroke-width:0.8;" x="414.72" xlink:href="#m49e4b558cc" y="49.739614"/>
      </g>
     </g>
     <g id="text_23">
      <!-- 1.4 -->
      <g transform="translate(421.72 53.538833)scale(0.1 -0.1)">
       <use xlink:href="#DejaVuSans-31"/>
       <use x="63.623047" xlink:href="#DejaVuSans-2e"/>
       <use x="95.410156" xlink:href="#DejaVuSans-34"/>
      </g>
     </g>
    </g>
    <g id="text_24">
     <!-- Loss -->
     <defs>
      <path d="M 9.8125 72.90625 
L 19.671875 72.90625 
L 19.671875 8.296875 
L 55.171875 8.296875 
L 55.171875 0 
L 9.8125 0 
z
" id="DejaVuSans-4c"/>
      <path d="M 30.609375 48.390625 
Q 23.390625 48.390625 19.1875 42.75 
Q 14.984375 37.109375 14.984375 27.296875 
Q 14.984375 17.484375 19.15625 11.84375 
Q 23.34375 6.203125 30.609375 6.203125 
Q 37.796875 6.203125 41.984375 11.859375 
Q 46.1875 17.53125 46.1875 27.296875 
Q 46.1875 37.015625 41.984375 42.703125 
Q 37.796875 48.390625 30.609375 48.390625 
z
M 30.609375 56 
Q 42.328125 56 49.015625 48.375 
Q 55.71875 40.765625 55.71875 27.296875 
Q 55.71875 13.875 49.015625 6.21875 
Q 42.328125 -1.421875 30.609375 -1.421875 
Q 18.84375 -1.421875 12.171875 6.21875 
Q 5.515625 13.875 5.515625 27.296875 
Q 5.515625 40.765625 12.171875 48.375 
Q 18.84375 56 30.609375 56 
z
" id="DejaVuSans-6f"/>
     </defs>
     <g transform="translate(449.221563 185.581906)rotate(-90)scale(0.1 -0.1)">
      <use xlink:href="#DejaVuSans-4c"/>
      <use x="55.697266" xlink:href="#DejaVuSans-6f"/>
      <use x="116.878906" xlink:href="#DejaVuSans-73"/>
      <use x="168.978516" xlink:href="#DejaVuSans-73"/>
     </g>
    </g>
   </g>
   <g id="line2d_39">
    <path clip-path="url(#pb7414489b7)" d="M 73.832727 53.568 
L 75.131345 132.363365 
L 76.429964 161.442185 
L 77.728582 180.787316 
L 79.0272 193.87241 
L 80.325818 203.521242 
L 82.923055 218.276927 
L 84.221673 222.941524 
L 85.520291 226.718798 
L 86.818909 231.645651 
L 88.117527 235.2058 
L 90.714764 240.731159 
L 92.013382 242.845813 
L 93.312 245.205279 
L 94.610618 248.106831 
L 95.909236 250.166787 
L 97.207855 251.601122 
L 98.506473 254.221112 
L 99.805091 255.774641 
L 101.103709 257.733036 
L 102.402327 258.844473 
L 103.700945 259.543569 
L 104.999564 261.08233 
L 106.298182 262.852468 
L 107.5968 263.630452 
L 108.895418 263.833781 
L 110.194036 265.868935 
L 111.492655 266.14536 
L 112.791273 268.094399 
L 115.388509 269.312644 
L 116.687127 270.93384 
L 117.985745 270.697013 
L 119.284364 271.343383 
L 120.582982 271.734254 
L 121.8816 272.563576 
L 123.180218 273.640181 
L 124.478836 274.396288 
L 125.777455 274.531851 
L 127.076073 274.964564 
L 128.374691 275.873079 
L 129.673309 276.453983 
L 130.971927 276.480818 
L 132.270545 276.803341 
L 133.569164 277.375835 
L 134.867782 277.599066 
L 136.1664 278.416098 
L 138.763636 279.377659 
L 140.062255 279.722678 
L 141.360873 279.438544 
L 142.659491 280.004817 
L 145.256727 280.530482 
L 146.555345 281.891006 
L 147.853964 281.5297 
L 149.152582 282.045326 
L 150.4512 282.169715 
L 151.749818 282.0575 
L 153.048436 282.221199 
L 155.645673 283.333661 
L 156.944291 283.084505 
L 158.242909 283.072397 
L 159.541527 283.661343 
L 160.840145 283.570209 
L 162.138764 285.027679 
L 163.437382 284.386582 
L 164.736 285.043876 
L 166.034618 284.453358 
L 167.333236 285.457499 
L 168.631855 284.57386 
L 169.930473 285.624722 
L 171.229091 285.477534 
L 172.527709 286.234321 
L 175.124945 285.452999 
L 176.423564 286.281689 
L 177.722182 286.06155 
L 179.0208 286.608242 
L 180.319418 286.181602 
L 181.618036 287.113369 
L 185.513891 286.827828 
L 186.812509 287.949556 
L 188.111127 287.658042 
L 189.409745 287.500687 
L 190.708364 287.133408 
L 192.006982 287.215022 
L 193.3056 288.262131 
L 194.604218 287.854987 
L 195.902836 287.926202 
L 197.201455 288.399917 
L 198.500073 288.045572 
L 199.798691 288.51579 
L 201.097309 288.721863 
L 202.395927 288.137896 
L 203.694545 288.308468 
L 204.993164 288.77154 
L 206.291782 289.482495 
L 207.5904 288.773982 
L 208.889018 288.965944 
L 210.187636 289.436124 
L 211.486255 289.494238 
L 212.784873 288.655535 
L 214.083491 289.309954 
L 216.680727 289.538244 
L 217.979345 289.385029 
L 219.277964 289.016903 
L 220.576582 289.520019 
L 221.8752 289.804183 
L 223.173818 290.386707 
L 224.472436 290.335839 
L 227.069673 289.695829 
L 228.368291 290.417927 
L 230.965527 289.823639 
L 234.861382 290.494865 
L 236.16 290.549721 
L 237.458618 290.304193 
L 238.757236 291.172211 
L 240.055855 293.007847 
L 241.354473 293.588628 
L 242.653091 293.835066 
L 245.250327 293.985715 
L 249.146182 294.217379 
L 250.4448 294.000641 
L 251.743418 294.391275 
L 253.042036 294.640851 
L 254.340655 294.464534 
L 255.639273 294.568271 
L 256.937891 294.506623 
L 258.236509 294.565497 
L 259.535127 294.469931 
L 264.7296 294.728398 
L 266.028218 294.619745 
L 271.222691 294.935056 
L 277.715782 294.838543 
L 279.0144 295.017977 
L 281.611636 294.791662 
L 282.910255 295.106045 
L 285.507491 295.003877 
L 286.806109 294.871187 
L 288.104727 295.111747 
L 295.896436 295.00959 
L 297.195055 295.161552 
L 299.792291 295.129826 
L 301.090909 295.2287 
L 307.584 295.180442 
L 308.882618 295.237764 
L 310.181236 295.039766 
L 311.479855 295.262917 
L 312.778473 295.348701 
L 314.077091 295.034547 
L 316.674327 295.269866 
L 317.972945 295.070537 
L 319.271564 295.289491 
L 324.466036 295.124222 
L 325.764655 295.286906 
L 327.063273 295.207972 
L 328.361891 295.279105 
L 329.660509 295.191185 
L 332.257745 295.319499 
L 333.556364 295.114169 
L 336.1536 295.402673 
L 337.452218 295.304386 
L 338.750836 295.399838 
L 340.049455 295.307888 
L 342.646691 295.333901 
L 343.945309 295.175038 
L 345.243927 295.31158 
L 362.125964 295.327066 
L 363.424582 295.225747 
L 364.7232 295.376126 
L 366.021818 295.231098 
L 367.320436 295.364027 
L 368.619055 295.362455 
L 369.917673 295.244973 
L 373.813527 295.355737 
L 375.112145 295.296355 
L 376.410764 295.432033 
L 377.709382 295.256124 
L 379.008 295.382786 
L 381.605236 295.250248 
L 382.903855 295.392534 
L 385.501091 295.360916 
L 388.098327 295.372016 
L 391.994182 295.27995 
L 393.2928 295.488 
L 394.591418 295.313282 
L 398.487273 295.291322 
L 398.487273 295.291322 
" style="fill:none;stroke:#ff6347;stroke-dasharray:7.4,3.2;stroke-dashoffset:0;stroke-width:2;"/>
   </g>
   <g id="line2d_40">
    <path clip-path="url(#pb7414489b7)" d="M 73.832727 86.2487 
L 75.131345 131.980663 
L 76.429964 122.846174 
L 77.728582 183.826416 
L 79.0272 173.810314 
L 80.325818 189.2081 
L 81.624436 170.710404 
L 82.923055 206.683532 
L 84.221673 201.276567 
L 85.520291 211.114154 
L 86.818909 201.64242 
L 88.117527 208.54019 
L 89.416145 209.396958 
L 90.714764 212.567062 
L 92.013382 209.458494 
L 93.312 218.94879 
L 94.610618 223.288336 
L 95.909236 218.488126 
L 97.207855 206.026632 
L 98.506473 209.969179 
L 99.805091 217.849501 
L 101.103709 209.319325 
L 102.402327 208.792959 
L 103.700945 212.406192 
L 104.999564 213.667173 
L 106.298182 213.753558 
L 107.5968 213.326492 
L 108.895418 210.698974 
L 110.194036 215.256588 
L 111.492655 216.774635 
L 112.791273 216.393473 
L 114.089891 219.951739 
L 115.388509 207.882931 
L 116.687127 199.659563 
L 117.985745 219.0407 
L 119.284364 214.440075 
L 120.582982 198.774495 
L 121.8816 207.901144 
L 123.180218 210.0372 
L 124.478836 216.129584 
L 125.777455 218.727804 
L 127.076073 202.744276 
L 128.374691 216.383078 
L 129.673309 209.14125 
L 130.971927 204.331067 
L 132.270545 210.488109 
L 133.569164 211.634071 
L 134.867782 210.955723 
L 136.1664 212.791131 
L 137.465018 215.519991 
L 138.763636 215.691679 
L 140.062255 213.166941 
L 141.360873 201.669406 
L 142.659491 211.468825 
L 143.958109 218.665177 
L 145.256727 212.301956 
L 146.555345 213.666623 
L 147.853964 213.226956 
L 149.152582 209.740182 
L 150.4512 209.400996 
L 151.749818 209.333416 
L 153.048436 212.383135 
L 154.347055 207.225885 
L 155.645673 210.759013 
L 156.944291 211.923233 
L 158.242909 209.720334 
L 159.541527 210.133292 
L 160.840145 214.69605 
L 162.138764 215.392345 
L 163.437382 215.160998 
L 164.736 215.095885 
L 166.034618 212.663554 
L 167.333236 208.257411 
L 168.631855 212.724152 
L 169.930473 215.783963 
L 171.229091 209.909379 
L 172.527709 200.676973 
L 173.826327 200.714021 
L 175.124945 207.81371 
L 176.423564 205.000756 
L 177.722182 206.035947 
L 179.0208 209.857861 
L 180.319418 210.49769 
L 181.618036 200.578611 
L 182.916655 196.740865 
L 184.215273 204.572443 
L 185.513891 207.163846 
L 186.812509 204.160605 
L 188.111127 199.576077 
L 189.409745 199.814965 
L 190.708364 205.77758 
L 192.006982 200.298261 
L 193.3056 207.350135 
L 194.604218 194.629398 
L 195.902836 207.427396 
L 197.201455 199.028393 
L 198.500073 208.904287 
L 199.798691 200.88419 
L 201.097309 201.656284 
L 202.395927 201.305718 
L 203.694545 204.699836 
L 204.993164 203.227272 
L 206.291782 203.207998 
L 207.5904 207.753592 
L 208.889018 205.773785 
L 210.187636 201.577611 
L 211.486255 199.47554 
L 212.784873 200.226521 
L 214.083491 195.940471 
L 215.382109 198.533569 
L 216.680727 203.882268 
L 217.979345 204.218593 
L 219.277964 203.906712 
L 220.576582 199.032879 
L 221.8752 202.237486 
L 223.173818 202.07914 
L 224.472436 201.089143 
L 225.771055 199.638559 
L 227.069673 195.966943 
L 229.666909 195.4743 
L 230.965527 198.979832 
L 233.562764 201.354458 
L 234.861382 196.390165 
L 236.16 196.508541 
L 238.757236 192.267019 
L 240.055855 203.430377 
L 241.354473 204.146236 
L 242.653091 204.615759 
L 243.951709 205.35113 
L 245.250327 204.241924 
L 246.548945 204.833029 
L 247.847564 205.569895 
L 249.146182 205.434948 
L 250.4448 204.836479 
L 251.743418 204.900012 
L 253.042036 204.651609 
L 254.340655 203.961129 
L 255.639273 203.831152 
L 256.937891 204.631229 
L 258.236509 202.540811 
L 259.535127 203.986167 
L 260.833745 202.532027 
L 262.132364 202.074743 
L 263.430982 204.530079 
L 264.7296 204.077804 
L 266.028218 202.544894 
L 267.326836 202.081156 
L 268.625455 203.611989 
L 269.924073 202.981294 
L 271.222691 202.498138 
L 272.521309 204.183171 
L 273.819927 201.0788 
L 275.118545 200.868099 
L 276.417164 202.468495 
L 277.715782 202.762447 
L 279.0144 202.78384 
L 280.313018 202.1983 
L 281.611636 203.332003 
L 282.910255 202.041166 
L 284.208873 203.049342 
L 285.507491 202.173242 
L 286.806109 202.247868 
L 288.104727 202.812115 
L 289.403345 201.567161 
L 290.701964 200.944757 
L 292.000582 201.584731 
L 293.2992 200.604912 
L 294.597818 199.180662 
L 295.896436 200.353334 
L 298.493673 202.429353 
L 299.792291 200.3537 
L 301.090909 201.040341 
L 302.389527 201.36194 
L 303.688145 201.342296 
L 304.986764 200.046638 
L 306.285382 199.0607 
L 307.584 200.567144 
L 308.882618 200.074346 
L 310.181236 201.116004 
L 311.479855 200.205889 
L 312.778473 199.635522 
L 314.077091 198.805665 
L 315.375709 198.611754 
L 316.674327 200.054626 
L 317.972945 199.389412 
L 319.271564 198.128992 
L 320.570182 198.008778 
L 321.8688 199.859444 
L 323.167418 198.898404 
L 324.466036 199.754671 
L 325.764655 198.949063 
L 327.063273 200.692463 
L 328.361891 199.342802 
L 329.660509 198.84955 
L 330.959127 199.283597 
L 332.257745 198.462664 
L 333.556364 198.654557 
L 334.854982 200.305562 
L 336.1536 200.557778 
L 337.452218 199.837988 
L 338.750836 198.885425 
L 340.049455 199.975802 
L 341.348073 198.103488 
L 342.646691 199.607308 
L 343.945309 200.592254 
L 345.243927 200.085217 
L 346.542545 199.977848 
L 347.841164 198.064817 
L 349.139782 200.045832 
L 350.4384 198.317595 
L 351.737018 198.25776 
L 353.035636 198.71755 
L 354.334255 200.143947 
L 355.632873 198.249742 
L 356.931491 198.68839 
L 358.230109 198.491487 
L 360.827345 200.44858 
L 362.125964 198.254503 
L 363.424582 199.693822 
L 364.7232 198.606827 
L 366.021818 199.436134 
L 367.320436 199.679995 
L 368.619055 198.40281 
L 369.917673 199.861436 
L 371.216291 199.999879 
L 372.514909 199.491553 
L 373.813527 199.82197 
L 375.112145 198.8951 
L 376.410764 199.220357 
L 377.709382 199.793747 
L 379.008 199.248812 
L 380.306618 199.107851 
L 381.605236 197.601208 
L 382.903855 199.568147 
L 384.202473 200.112325 
L 385.501091 197.063054 
L 386.799709 199.979982 
L 388.098327 198.055695 
L 389.396945 199.255951 
L 390.695564 197.480374 
L 391.994182 199.287273 
L 393.2928 197.941715 
L 394.591418 198.991913 
L 395.890036 199.01715 
L 397.188655 197.469414 
L 398.487273 197.86786 
L 398.487273 197.86786 
" style="fill:none;stroke:#4682b4;stroke-dasharray:7.4,3.2;stroke-dashoffset:0;stroke-width:2;"/>
   </g>
   <g id="patch_8">
    <path d="M 57.6 307.584 
L 57.6 41.472 
" style="fill:none;stroke:#000000;stroke-linecap:square;stroke-linejoin:miter;stroke-width:0.8;"/>
   </g>
   <g id="patch_9">
    <path d="M 414.72 307.584 
L 414.72 41.472 
" style="fill:none;stroke:#000000;stroke-linecap:square;stroke-linejoin:miter;stroke-width:0.8;"/>
   </g>
   <g id="patch_10">
    <path d="M 57.6 307.584 
L 414.72 307.584 
" style="fill:none;stroke:#000000;stroke-linecap:square;stroke-linejoin:miter;stroke-width:0.8;"/>
   </g>
   <g id="patch_11">
    <path d="M 57.6 41.472 
L 414.72 41.472 
" style="fill:none;stroke:#000000;stroke-linecap:square;stroke-linejoin:miter;stroke-width:0.8;"/>
   </g>
   <g id="legend_2">
    <g id="patch_12">
     <path d="M 328.129375 79.3845 
L 407.72 79.3845 
Q 409.72 79.3845 409.72 77.3845 
L 409.72 48.472 
Q 409.72 46.472 407.72 46.472 
L 328.129375 46.472 
Q 326.129375 46.472 326.129375 48.472 
L 326.129375 77.3845 
Q 326.129375 79.3845 328.129375 79.3845 
z
" style="fill:#ffffff;opacity:0.8;stroke:#cccccc;stroke-linejoin:miter;"/>
    </g>
    <g id="line2d_41">
     <path d="M 330.129375 54.570438 
L 350.129375 54.570438 
" style="fill:none;stroke:#ff6347;stroke-dasharray:7.4,3.2;stroke-dashoffset:0;stroke-width:2;"/>
    </g>
    <g id="line2d_42"/>
    <g id="text_25">
     <!-- train_loss -->
     <defs>
      <path d="M 9.421875 75.984375 
L 18.40625 75.984375 
L 18.40625 0 
L 9.421875 0 
z
" id="DejaVuSans-6c"/>
     </defs>
     <g transform="translate(358.129375 58.070438)scale(0.1 -0.1)">
      <use xlink:href="#DejaVuSans-74"/>
      <use x="39.208984" xlink:href="#DejaVuSans-72"/>
      <use x="80.322266" xlink:href="#DejaVuSans-61"/>
      <use x="141.601562" xlink:href="#DejaVuSans-69"/>
      <use x="169.384766" xlink:href="#DejaVuSans-6e"/>
      <use x="232.763672" xlink:href="#DejaVuSans-5f"/>
      <use x="282.763672" xlink:href="#DejaVuSans-6c"/>
      <use x="310.546875" xlink:href="#DejaVuSans-6f"/>
      <use x="371.728516" xlink:href="#DejaVuSans-73"/>
      <use x="423.828125" xlink:href="#DejaVuSans-73"/>
     </g>
    </g>
    <g id="line2d_43">
     <path d="M 330.129375 69.526688 
L 350.129375 69.526688 
" style="fill:none;stroke:#4682b4;stroke-dasharray:7.4,3.2;stroke-dashoffset:0;stroke-width:2;"/>
    </g>
    <g id="line2d_44"/>
    <g id="text_26">
     <!-- test_loss -->
     <g transform="translate(358.129375 73.026688)scale(0.1 -0.1)">
      <use xlink:href="#DejaVuSans-74"/>
      <use x="39.208984" xlink:href="#DejaVuSans-65"/>
      <use x="100.732422" xlink:href="#DejaVuSans-73"/>
      <use x="152.832031" xlink:href="#DejaVuSans-74"/>
      <use x="192.041016" xlink:href="#DejaVuSans-5f"/>
      <use x="242.041016" xlink:href="#DejaVuSans-6c"/>
      <use x="269.824219" xlink:href="#DejaVuSans-6f"/>
      <use x="331.005859" xlink:href="#DejaVuSans-73"/>
      <use x="383.105469" xlink:href="#DejaVuSans-73"/>
     </g>
    </g>
   </g>
  </g>
 </g>
 <defs>
  <clipPath id="pb7414489b7">
   <rect height="266.112" width="357.12" x="57.6" y="41.472"/>
  </clipPath>
 </defs>
</svg>
