<?xml version="1.0" encoding="utf-8" standalone="no"?>
<!DOCTYPE svg PUBLIC "-//W3C//DTD SVG 1.1//EN"
  "http://www.w3.org/Graphics/SVG/1.1/DTD/svg11.dtd">
<!-- Created with matplotlib (http://matplotlib.org/) -->
<svg height="345pt" version="1.1" viewBox="0 0 460 345" width="460pt" xmlns="http://www.w3.org/2000/svg" xmlns:xlink="http://www.w3.org/1999/xlink">
 <defs>
  <style type="text/css">
*{stroke-linecap:butt;stroke-linejoin:round;}
  </style>
 </defs>
 <g id="figure_1">
  <g id="patch_1">
   <path d="M 0 345.6 
L 460.8 345.6 
L 460.8 0 
L 0 0 
z
" style="fill:#ffffff;"/>
  </g>
  <g id="axes_1">
   <g id="patch_2">
    <path d="M 57.6 307.584 
L 414.72 307.584 
L 414.72 41.472 
L 57.6 41.472 
z
" style="fill:#ffffff;"/>
   </g>
   <g id="matplotlib.axis_1">
    <g id="xtick_1">
     <g id="line2d_1">
      <path clip-path="url(#p28c6ca569f)" d="M 73.832727 307.584 
L 73.832727 41.472 
" style="fill:none;stroke:#b0b0b0;stroke-linecap:square;stroke-width:0.8;"/>
     </g>
     <g id="line2d_2">
      <defs>
       <path d="M 0 0 
L 0 3.5 
" id="mf4ae602652" style="stroke:#000000;stroke-width:0.8;"/>
      </defs>
      <g>
       <use style="stroke:#000000;stroke-width:0.8;" x="73.832727" xlink:href="#mf4ae602652" y="307.584"/>
      </g>
     </g>
     <g id="text_1">
      <!-- 0 -->
      <defs>
       <path d="M 31.78125 66.40625 
Q 24.171875 66.40625 20.328125 58.90625 
Q 16.5 51.421875 16.5 36.375 
Q 16.5 21.390625 20.328125 13.890625 
Q 24.171875 6.390625 31.78125 6.390625 
Q 39.453125 6.390625 43.28125 13.890625 
Q 47.125 21.390625 47.125 36.375 
Q 47.125 51.421875 43.28125 58.90625 
Q 39.453125 66.40625 31.78125 66.40625 
z
M 31.78125 74.21875 
Q 44.046875 74.21875 50.515625 64.515625 
Q 56.984375 54.828125 56.984375 36.375 
Q 56.984375 17.96875 50.515625 8.265625 
Q 44.046875 -1.421875 31.78125 -1.421875 
Q 19.53125 -1.421875 13.0625 8.265625 
Q 6.59375 17.96875 6.59375 36.375 
Q 6.59375 54.828125 13.0625 64.515625 
Q 19.53125 74.21875 31.78125 74.21875 
z
" id="DejaVuSans-30"/>
      </defs>
      <g transform="translate(70.651477 322.182437)scale(0.1 -0.1)">
       <use xlink:href="#DejaVuSans-30"/>
      </g>
     </g>
    </g>
    <g id="xtick_2">
     <g id="line2d_3">
      <path clip-path="url(#p28c6ca569f)" d="M 137.490481 307.584 
L 137.490481 41.472 
" style="fill:none;stroke:#b0b0b0;stroke-linecap:square;stroke-width:0.8;"/>
     </g>
     <g id="line2d_4">
      <g>
       <use style="stroke:#000000;stroke-width:0.8;" x="137.490481" xlink:href="#mf4ae602652" y="307.584"/>
      </g>
     </g>
     <g id="text_2">
      <!-- 50 -->
      <defs>
       <path d="M 10.796875 72.90625 
L 49.515625 72.90625 
L 49.515625 64.59375 
L 19.828125 64.59375 
L 19.828125 46.734375 
Q 21.96875 47.46875 24.109375 47.828125 
Q 26.265625 48.1875 28.421875 48.1875 
Q 40.625 48.1875 47.75 41.5 
Q 54.890625 34.8125 54.890625 23.390625 
Q 54.890625 11.625 47.5625 5.09375 
Q 40.234375 -1.421875 26.90625 -1.421875 
Q 22.3125 -1.421875 17.546875 -0.640625 
Q 12.796875 0.140625 7.71875 1.703125 
L 7.71875 11.625 
Q 12.109375 9.234375 16.796875 8.0625 
Q 21.484375 6.890625 26.703125 6.890625 
Q 35.15625 6.890625 40.078125 11.328125 
Q 45.015625 15.765625 45.015625 23.390625 
Q 45.015625 31 40.078125 35.4375 
Q 35.15625 39.890625 26.703125 39.890625 
Q 22.75 39.890625 18.8125 39.015625 
Q 14.890625 38.140625 10.796875 36.28125 
z
" id="DejaVuSans-35"/>
      </defs>
      <g transform="translate(131.127981 322.182437)scale(0.1 -0.1)">
       <use xlink:href="#DejaVuSans-35"/>
       <use x="63.623047" xlink:href="#DejaVuSans-30"/>
      </g>
     </g>
    </g>
    <g id="xtick_3">
     <g id="line2d_5">
      <path clip-path="url(#p28c6ca569f)" d="M 201.148235 307.584 
L 201.148235 41.472 
" style="fill:none;stroke:#b0b0b0;stroke-linecap:square;stroke-width:0.8;"/>
     </g>
     <g id="line2d_6">
      <g>
       <use style="stroke:#000000;stroke-width:0.8;" x="201.148235" xlink:href="#mf4ae602652" y="307.584"/>
      </g>
     </g>
     <g id="text_3">
      <!-- 100 -->
      <defs>
       <path d="M 12.40625 8.296875 
L 28.515625 8.296875 
L 28.515625 63.921875 
L 10.984375 60.40625 
L 10.984375 69.390625 
L 28.421875 72.90625 
L 38.28125 72.90625 
L 38.28125 8.296875 
L 54.390625 8.296875 
L 54.390625 0 
L 12.40625 0 
z
" id="DejaVuSans-31"/>
      </defs>
      <g transform="translate(191.604485 322.182437)scale(0.1 -0.1)">
       <use xlink:href="#DejaVuSans-31"/>
       <use x="63.623047" xlink:href="#DejaVuSans-30"/>
       <use x="127.246094" xlink:href="#DejaVuSans-30"/>
      </g>
     </g>
    </g>
    <g id="xtick_4">
     <g id="line2d_7">
      <path clip-path="url(#p28c6ca569f)" d="M 264.805989 307.584 
L 264.805989 41.472 
" style="fill:none;stroke:#b0b0b0;stroke-linecap:square;stroke-width:0.8;"/>
     </g>
     <g id="line2d_8">
      <g>
       <use style="stroke:#000000;stroke-width:0.8;" x="264.805989" xlink:href="#mf4ae602652" y="307.584"/>
      </g>
     </g>
     <g id="text_4">
      <!-- 150 -->
      <g transform="translate(255.262239 322.182437)scale(0.1 -0.1)">
       <use xlink:href="#DejaVuSans-31"/>
       <use x="63.623047" xlink:href="#DejaVuSans-35"/>
       <use x="127.246094" xlink:href="#DejaVuSans-30"/>
      </g>
     </g>
    </g>
    <g id="xtick_5">
     <g id="line2d_9">
      <path clip-path="url(#p28c6ca569f)" d="M 328.463743 307.584 
L 328.463743 41.472 
" style="fill:none;stroke:#b0b0b0;stroke-linecap:square;stroke-width:0.8;"/>
     </g>
     <g id="line2d_10">
      <g>
       <use style="stroke:#000000;stroke-width:0.8;" x="328.463743" xlink:href="#mf4ae602652" y="307.584"/>
      </g>
     </g>
     <g id="text_5">
      <!-- 200 -->
      <defs>
       <path d="M 19.1875 8.296875 
L 53.609375 8.296875 
L 53.609375 0 
L 7.328125 0 
L 7.328125 8.296875 
Q 12.9375 14.109375 22.625 23.890625 
Q 32.328125 33.6875 34.8125 36.53125 
Q 39.546875 41.84375 41.421875 45.53125 
Q 43.3125 49.21875 43.3125 52.78125 
Q 43.3125 58.59375 39.234375 62.25 
Q 35.15625 65.921875 28.609375 65.921875 
Q 23.96875 65.921875 18.8125 64.3125 
Q 13.671875 62.703125 7.8125 59.421875 
L 7.8125 69.390625 
Q 13.765625 71.78125 18.9375 73 
Q 24.125 74.21875 28.421875 74.21875 
Q 39.75 74.21875 46.484375 68.546875 
Q 53.21875 62.890625 53.21875 53.421875 
Q 53.21875 48.921875 51.53125 44.890625 
Q 49.859375 40.875 45.40625 35.40625 
Q 44.1875 33.984375 37.640625 27.21875 
Q 31.109375 20.453125 19.1875 8.296875 
z
" id="DejaVuSans-32"/>
      </defs>
      <g transform="translate(318.919993 322.182437)scale(0.1 -0.1)">
       <use xlink:href="#DejaVuSans-32"/>
       <use x="63.623047" xlink:href="#DejaVuSans-30"/>
       <use x="127.246094" xlink:href="#DejaVuSans-30"/>
      </g>
     </g>
    </g>
    <g id="xtick_6">
     <g id="line2d_11">
      <path clip-path="url(#p28c6ca569f)" d="M 392.121497 307.584 
L 392.121497 41.472 
" style="fill:none;stroke:#b0b0b0;stroke-linecap:square;stroke-width:0.8;"/>
     </g>
     <g id="line2d_12">
      <g>
       <use style="stroke:#000000;stroke-width:0.8;" x="392.121497" xlink:href="#mf4ae602652" y="307.584"/>
      </g>
     </g>
     <g id="text_6">
      <!-- 250 -->
      <g transform="translate(382.577747 322.182437)scale(0.1 -0.1)">
       <use xlink:href="#DejaVuSans-32"/>
       <use x="63.623047" xlink:href="#DejaVuSans-35"/>
       <use x="127.246094" xlink:href="#DejaVuSans-30"/>
      </g>
     </g>
    </g>
   </g>
   <g id="matplotlib.axis_2">
    <g id="ytick_1">
     <g id="line2d_13">
      <path clip-path="url(#p28c6ca569f)" d="M 57.6 266.856634 
L 414.72 266.856634 
" style="fill:none;stroke:#b0b0b0;stroke-linecap:square;stroke-width:0.8;"/>
     </g>
     <g id="line2d_14">
      <defs>
       <path d="M 0 0 
L -3.5 0 
" id="mcd2849da65" style="stroke:#000000;stroke-width:0.8;"/>
      </defs>
      <g>
       <use style="stroke:#000000;stroke-width:0.8;" x="57.6" xlink:href="#mcd2849da65" y="266.856634"/>
      </g>
     </g>
     <g id="text_7">
      <!-- 50 -->
      <g transform="translate(37.875 270.655853)scale(0.1 -0.1)">
       <use xlink:href="#DejaVuSans-35"/>
       <use x="63.623047" xlink:href="#DejaVuSans-30"/>
      </g>
     </g>
    </g>
    <g id="ytick_2">
     <g id="line2d_15">
      <path clip-path="url(#p28c6ca569f)" d="M 57.6 224.186939 
L 414.72 224.186939 
" style="fill:none;stroke:#b0b0b0;stroke-linecap:square;stroke-width:0.8;"/>
     </g>
     <g id="line2d_16">
      <g>
       <use style="stroke:#000000;stroke-width:0.8;" x="57.6" xlink:href="#mcd2849da65" y="224.186939"/>
      </g>
     </g>
     <g id="text_8">
      <!-- 60 -->
      <defs>
       <path d="M 33.015625 40.375 
Q 26.375 40.375 22.484375 35.828125 
Q 18.609375 31.296875 18.609375 23.390625 
Q 18.609375 15.53125 22.484375 10.953125 
Q 26.375 6.390625 33.015625 6.390625 
Q 39.65625 6.390625 43.53125 10.953125 
Q 47.40625 15.53125 47.40625 23.390625 
Q 47.40625 31.296875 43.53125 35.828125 
Q 39.65625 40.375 33.015625 40.375 
z
M 52.59375 71.296875 
L 52.59375 62.3125 
Q 48.875 64.0625 45.09375 64.984375 
Q 41.3125 65.921875 37.59375 65.921875 
Q 27.828125 65.921875 22.671875 59.328125 
Q 17.53125 52.734375 16.796875 39.40625 
Q 19.671875 43.65625 24.015625 45.921875 
Q 28.375 48.1875 33.59375 48.1875 
Q 44.578125 48.1875 50.953125 41.515625 
Q 57.328125 34.859375 57.328125 23.390625 
Q 57.328125 12.15625 50.6875 5.359375 
Q 44.046875 -1.421875 33.015625 -1.421875 
Q 20.359375 -1.421875 13.671875 8.265625 
Q 6.984375 17.96875 6.984375 36.375 
Q 6.984375 53.65625 15.1875 63.9375 
Q 23.390625 74.21875 37.203125 74.21875 
Q 40.921875 74.21875 44.703125 73.484375 
Q 48.484375 72.75 52.59375 71.296875 
z
" id="DejaVuSans-36"/>
      </defs>
      <g transform="translate(37.875 227.986157)scale(0.1 -0.1)">
       <use xlink:href="#DejaVuSans-36"/>
       <use x="63.623047" xlink:href="#DejaVuSans-30"/>
      </g>
     </g>
    </g>
    <g id="ytick_3">
     <g id="line2d_17">
      <path clip-path="url(#p28c6ca569f)" d="M 57.6 181.517243 
L 414.72 181.517243 
" style="fill:none;stroke:#b0b0b0;stroke-linecap:square;stroke-width:0.8;"/>
     </g>
     <g id="line2d_18">
      <g>
       <use style="stroke:#000000;stroke-width:0.8;" x="57.6" xlink:href="#mcd2849da65" y="181.517243"/>
      </g>
     </g>
     <g id="text_9">
      <!-- 70 -->
      <defs>
       <path d="M 8.203125 72.90625 
L 55.078125 72.90625 
L 55.078125 68.703125 
L 28.609375 0 
L 18.3125 0 
L 43.21875 64.59375 
L 8.203125 64.59375 
z
" id="DejaVuSans-37"/>
      </defs>
      <g transform="translate(37.875 185.316462)scale(0.1 -0.1)">
       <use xlink:href="#DejaVuSans-37"/>
       <use x="63.623047" xlink:href="#DejaVuSans-30"/>
      </g>
     </g>
    </g>
    <g id="ytick_4">
     <g id="line2d_19">
      <path clip-path="url(#p28c6ca569f)" d="M 57.6 138.847547 
L 414.72 138.847547 
" style="fill:none;stroke:#b0b0b0;stroke-linecap:square;stroke-width:0.8;"/>
     </g>
     <g id="line2d_20">
      <g>
       <use style="stroke:#000000;stroke-width:0.8;" x="57.6" xlink:href="#mcd2849da65" y="138.847547"/>
      </g>
     </g>
     <g id="text_10">
      <!-- 80 -->
      <defs>
       <path d="M 31.78125 34.625 
Q 24.75 34.625 20.71875 30.859375 
Q 16.703125 27.09375 16.703125 20.515625 
Q 16.703125 13.921875 20.71875 10.15625 
Q 24.75 6.390625 31.78125 6.390625 
Q 38.8125 6.390625 42.859375 10.171875 
Q 46.921875 13.96875 46.921875 20.515625 
Q 46.921875 27.09375 42.890625 30.859375 
Q 38.875 34.625 31.78125 34.625 
z
M 21.921875 38.8125 
Q 15.578125 40.375 12.03125 44.71875 
Q 8.5 49.078125 8.5 55.328125 
Q 8.5 64.0625 14.71875 69.140625 
Q 20.953125 74.21875 31.78125 74.21875 
Q 42.671875 74.21875 48.875 69.140625 
Q 55.078125 64.0625 55.078125 55.328125 
Q 55.078125 49.078125 51.53125 44.71875 
Q 48 40.375 41.703125 38.8125 
Q 48.828125 37.15625 52.796875 32.3125 
Q 56.78125 27.484375 56.78125 20.515625 
Q 56.78125 9.90625 50.3125 4.234375 
Q 43.84375 -1.421875 31.78125 -1.421875 
Q 19.734375 -1.421875 13.25 4.234375 
Q 6.78125 9.90625 6.78125 20.515625 
Q 6.78125 27.484375 10.78125 32.3125 
Q 14.796875 37.15625 21.921875 38.8125 
z
M 18.3125 54.390625 
Q 18.3125 48.734375 21.84375 45.5625 
Q 25.390625 42.390625 31.78125 42.390625 
Q 38.140625 42.390625 41.71875 45.5625 
Q 45.3125 48.734375 45.3125 54.390625 
Q 45.3125 60.0625 41.71875 63.234375 
Q 38.140625 66.40625 31.78125 66.40625 
Q 25.390625 66.40625 21.84375 63.234375 
Q 18.3125 60.0625 18.3125 54.390625 
z
" id="DejaVuSans-38"/>
      </defs>
      <g transform="translate(37.875 142.646766)scale(0.1 -0.1)">
       <use xlink:href="#DejaVuSans-38"/>
       <use x="63.623047" xlink:href="#DejaVuSans-30"/>
      </g>
     </g>
    </g>
    <g id="ytick_5">
     <g id="line2d_21">
      <path clip-path="url(#p28c6ca569f)" d="M 57.6 96.177852 
L 414.72 96.177852 
" style="fill:none;stroke:#b0b0b0;stroke-linecap:square;stroke-width:0.8;"/>
     </g>
     <g id="line2d_22">
      <g>
       <use style="stroke:#000000;stroke-width:0.8;" x="57.6" xlink:href="#mcd2849da65" y="96.177852"/>
      </g>
     </g>
     <g id="text_11">
      <!-- 90 -->
      <defs>
       <path d="M 10.984375 1.515625 
L 10.984375 10.5 
Q 14.703125 8.734375 18.5 7.8125 
Q 22.3125 6.890625 25.984375 6.890625 
Q 35.75 6.890625 40.890625 13.453125 
Q 46.046875 20.015625 46.78125 33.40625 
Q 43.953125 29.203125 39.59375 26.953125 
Q 35.25 24.703125 29.984375 24.703125 
Q 19.046875 24.703125 12.671875 31.3125 
Q 6.296875 37.9375 6.296875 49.421875 
Q 6.296875 60.640625 12.9375 67.421875 
Q 19.578125 74.21875 30.609375 74.21875 
Q 43.265625 74.21875 49.921875 64.515625 
Q 56.59375 54.828125 56.59375 36.375 
Q 56.59375 19.140625 48.40625 8.859375 
Q 40.234375 -1.421875 26.421875 -1.421875 
Q 22.703125 -1.421875 18.890625 -0.6875 
Q 15.09375 0.046875 10.984375 1.515625 
z
M 30.609375 32.421875 
Q 37.25 32.421875 41.125 36.953125 
Q 45.015625 41.5 45.015625 49.421875 
Q 45.015625 57.28125 41.125 61.84375 
Q 37.25 66.40625 30.609375 66.40625 
Q 23.96875 66.40625 20.09375 61.84375 
Q 16.21875 57.28125 16.21875 49.421875 
Q 16.21875 41.5 20.09375 36.953125 
Q 23.96875 32.421875 30.609375 32.421875 
z
" id="DejaVuSans-39"/>
      </defs>
      <g transform="translate(37.875 99.97707)scale(0.1 -0.1)">
       <use xlink:href="#DejaVuSans-39"/>
       <use x="63.623047" xlink:href="#DejaVuSans-30"/>
      </g>
     </g>
    </g>
    <g id="ytick_6">
     <g id="line2d_23">
      <path clip-path="url(#p28c6ca569f)" d="M 57.6 53.508156 
L 414.72 53.508156 
" style="fill:none;stroke:#b0b0b0;stroke-linecap:square;stroke-width:0.8;"/>
     </g>
     <g id="line2d_24">
      <g>
       <use style="stroke:#000000;stroke-width:0.8;" x="57.6" xlink:href="#mcd2849da65" y="53.508156"/>
      </g>
     </g>
     <g id="text_12">
      <!-- 100 -->
      <g transform="translate(31.5125 57.307375)scale(0.1 -0.1)">
       <use xlink:href="#DejaVuSans-31"/>
       <use x="63.623047" xlink:href="#DejaVuSans-30"/>
       <use x="127.246094" xlink:href="#DejaVuSans-30"/>
      </g>
     </g>
    </g>
    <g id="text_13">
     <!-- Accuracy -->
     <defs>
      <path d="M 34.1875 63.1875 
L 20.796875 26.90625 
L 47.609375 26.90625 
z
M 28.609375 72.90625 
L 39.796875 72.90625 
L 67.578125 0 
L 57.328125 0 
L 50.6875 18.703125 
L 17.828125 18.703125 
L 11.1875 0 
L 0.78125 0 
z
" id="DejaVuSans-41"/>
      <path d="M 48.78125 52.59375 
L 48.78125 44.1875 
Q 44.96875 46.296875 41.140625 47.34375 
Q 37.3125 48.390625 33.40625 48.390625 
Q 24.65625 48.390625 19.8125 42.84375 
Q 14.984375 37.3125 14.984375 27.296875 
Q 14.984375 17.28125 19.8125 11.734375 
Q 24.65625 6.203125 33.40625 6.203125 
Q 37.3125 6.203125 41.140625 7.25 
Q 44.96875 8.296875 48.78125 10.40625 
L 48.78125 2.09375 
Q 45.015625 0.34375 40.984375 -0.53125 
Q 36.96875 -1.421875 32.421875 -1.421875 
Q 20.0625 -1.421875 12.78125 6.34375 
Q 5.515625 14.109375 5.515625 27.296875 
Q 5.515625 40.671875 12.859375 48.328125 
Q 20.21875 56 33.015625 56 
Q 37.15625 56 41.109375 55.140625 
Q 45.0625 54.296875 48.78125 52.59375 
z
" id="DejaVuSans-63"/>
      <path d="M 8.5 21.578125 
L 8.5 54.6875 
L 17.484375 54.6875 
L 17.484375 21.921875 
Q 17.484375 14.15625 20.5 10.265625 
Q 23.53125 6.390625 29.59375 6.390625 
Q 36.859375 6.390625 41.078125 11.03125 
Q 45.3125 15.671875 45.3125 23.6875 
L 45.3125 54.6875 
L 54.296875 54.6875 
L 54.296875 0 
L 45.3125 0 
L 45.3125 8.40625 
Q 42.046875 3.421875 37.71875 1 
Q 33.40625 -1.421875 27.6875 -1.421875 
Q 18.265625 -1.421875 13.375 4.4375 
Q 8.5 10.296875 8.5 21.578125 
z
M 31.109375 56 
z
" id="DejaVuSans-75"/>
      <path d="M 41.109375 46.296875 
Q 39.59375 47.171875 37.8125 47.578125 
Q 36.03125 48 33.890625 48 
Q 26.265625 48 22.1875 43.046875 
Q 18.109375 38.09375 18.109375 28.8125 
L 18.109375 0 
L 9.078125 0 
L 9.078125 54.6875 
L 18.109375 54.6875 
L 18.109375 46.1875 
Q 20.953125 51.171875 25.484375 53.578125 
Q 30.03125 56 36.53125 56 
Q 37.453125 56 38.578125 55.875 
Q 39.703125 55.765625 41.0625 55.515625 
z
" id="DejaVuSans-72"/>
      <path d="M 34.28125 27.484375 
Q 23.390625 27.484375 19.1875 25 
Q 14.984375 22.515625 14.984375 16.5 
Q 14.984375 11.71875 18.140625 8.90625 
Q 21.296875 6.109375 26.703125 6.109375 
Q 34.1875 6.109375 38.703125 11.40625 
Q 43.21875 16.703125 43.21875 25.484375 
L 43.21875 27.484375 
z
M 52.203125 31.203125 
L 52.203125 0 
L 43.21875 0 
L 43.21875 8.296875 
Q 40.140625 3.328125 35.546875 0.953125 
Q 30.953125 -1.421875 24.3125 -1.421875 
Q 15.921875 -1.421875 10.953125 3.296875 
Q 6 8.015625 6 15.921875 
Q 6 25.140625 12.171875 29.828125 
Q 18.359375 34.515625 30.609375 34.515625 
L 43.21875 34.515625 
L 43.21875 35.40625 
Q 43.21875 41.609375 39.140625 45 
Q 35.0625 48.390625 27.6875 48.390625 
Q 23 48.390625 18.546875 47.265625 
Q 14.109375 46.140625 10.015625 43.890625 
L 10.015625 52.203125 
Q 14.9375 54.109375 19.578125 55.046875 
Q 24.21875 56 28.609375 56 
Q 40.484375 56 46.34375 49.84375 
Q 52.203125 43.703125 52.203125 31.203125 
z
" id="DejaVuSans-61"/>
      <path d="M 32.171875 -5.078125 
Q 28.375 -14.84375 24.75 -17.8125 
Q 21.140625 -20.796875 15.09375 -20.796875 
L 7.90625 -20.796875 
L 7.90625 -13.28125 
L 13.1875 -13.28125 
Q 16.890625 -13.28125 18.9375 -11.515625 
Q 21 -9.765625 23.484375 -3.21875 
L 25.09375 0.875 
L 2.984375 54.6875 
L 12.5 54.6875 
L 29.59375 11.921875 
L 46.6875 54.6875 
L 56.203125 54.6875 
z
" id="DejaVuSans-79"/>
     </defs>
     <g transform="translate(25.432812 197.442844)rotate(-90)scale(0.1 -0.1)">
      <use xlink:href="#DejaVuSans-41"/>
      <use x="68.392578" xlink:href="#DejaVuSans-63"/>
      <use x="123.373047" xlink:href="#DejaVuSans-63"/>
      <use x="178.353516" xlink:href="#DejaVuSans-75"/>
      <use x="241.732422" xlink:href="#DejaVuSans-72"/>
      <use x="282.845703" xlink:href="#DejaVuSans-61"/>
      <use x="344.125" xlink:href="#DejaVuSans-63"/>
      <use x="399.105469" xlink:href="#DejaVuSans-79"/>
     </g>
    </g>
   </g>
   <g id="line2d_25">
    <path clip-path="url(#p28c6ca569f)" d="M 73.832727 265.820107 
L 75.105882 192.998954 
L 76.379037 165.990862 
L 77.652193 148.369652 
L 78.925348 136.068109 
L 80.198503 127.449308 
L 82.744813 116.392233 
L 84.017968 110.87233 
L 85.291123 106.801403 
L 86.564278 104.600268 
L 87.837433 101.562511 
L 89.110588 99.020572 
L 90.383743 97.194551 
L 91.656898 94.231592 
L 92.930053 93.165461 
L 94.203209 91.067839 
L 95.476364 90.008957 
L 96.749519 87.872473 
L 98.022674 86.814429 
L 99.295829 85.161734 
L 100.568984 84.614261 
L 101.842139 83.017875 
L 103.115294 82.496649 
L 104.388449 80.792375 
L 105.661604 79.820499 
L 106.934759 79.262192 
L 108.207914 78.890156 
L 109.48107 78.017876 
L 110.754225 77.625341 
L 112.02738 76.329091 
L 113.300535 75.389439 
L 114.57369 75.715924 
L 115.846845 74.65549 
L 117.12 74.329616 
L 118.393155 74.131492 
L 119.66631 73.254405 
L 120.939465 72.888702 
L 122.21262 73.189068 
L 123.485775 72.719979 
L 124.75893 71.824631 
L 126.032086 71.21767 
L 127.305241 71.737548 
L 128.578396 70.406557 
L 131.124706 68.450063 
L 132.397861 69.805343 
L 134.944171 68.145883 
L 136.217326 68.738882 
L 137.490481 67.488056 
L 138.763636 67.939595 
L 140.036791 67.767057 
L 141.309947 67.793304 
L 142.583102 66.908079 
L 143.856257 67.22083 
L 145.129412 65.643773 
L 146.402567 66.515544 
L 147.675722 66.240688 
L 148.948877 66.247046 
L 150.222032 65.849374 
L 151.495187 66.044624 
L 152.768342 64.89225 
L 154.041497 65.328529 
L 155.314652 64.413471 
L 156.587807 64.348133 
L 157.860963 65.960263 
L 159.134118 64.678586 
L 160.407273 64.032407 
L 161.680428 64.003921 
L 162.953583 64.826657 
L 164.226738 64.220256 
L 165.499893 64.287831 
L 166.773048 63.637176 
L 168.046203 63.554213 
L 169.319358 64.040825 
L 171.865668 62.844832 
L 173.138824 62.656831 
L 174.411979 63.433609 
L 175.685134 63.091737 
L 176.958289 62.475645 
L 178.231444 62.289907 
L 179.504599 63.313234 
L 180.777754 62.280039 
L 182.050909 62.629694 
L 183.324064 61.846557 
L 184.597219 61.863038 
L 185.870374 62.221975 
L 189.68984 61.828067 
L 190.962995 61.292191 
L 192.23615 61.291683 
L 193.509305 62.435003 
L 194.78246 60.683272 
L 196.055615 61.573711 
L 197.32877 61.564224 
L 198.601925 60.830021 
L 199.87508 61.427063 
L 201.148235 60.719259 
L 203.694545 60.57335 
L 204.967701 60.214259 
L 206.240856 60.770914 
L 207.514011 60.693292 
L 208.787166 60.795254 
L 210.060321 59.576854 
L 211.333476 60.181196 
L 212.606631 60.505723 
L 213.879786 60.369198 
L 215.152941 60.00174 
L 216.426096 60.174584 
L 218.972406 59.779811 
L 220.245561 59.387073 
L 221.518717 59.431148 
L 222.791872 59.106265 
L 224.065027 59.745298 
L 225.338182 60.771448 
L 226.611337 59.294649 
L 227.884492 59.986887 
L 229.157647 60.102786 
L 230.430802 59.575125 
L 231.703957 58.918493 
L 232.977112 58.943544 
L 235.523422 59.731666 
L 236.796578 57.053253 
L 238.069733 55.154035 
L 239.342888 54.719307 
L 240.616043 54.412812 
L 244.435508 54.122391 
L 245.708663 54.241851 
L 246.981818 54.045659 
L 252.074439 54.020353 
L 253.347594 53.960509 
L 254.620749 54.028696 
L 255.893904 53.900742 
L 262.259679 53.806842 
L 266.079144 53.789294 
L 267.352299 53.849799 
L 269.89861 53.738351 
L 271.171765 53.840567 
L 274.99123 53.729933 
L 287.722781 53.730136 
L 290.269091 53.70455 
L 310.639572 53.644579 
L 313.185882 53.635957 
L 319.551658 53.653404 
L 322.097968 53.670495 
L 323.371123 53.585091 
L 325.917433 53.704627 
L 327.190588 53.576393 
L 331.010053 53.704347 
L 339.922139 53.627564 
L 342.468449 53.619273 
L 346.287914 53.601979 
L 348.834225 53.653277 
L 352.65369 53.59356 
L 355.2 53.695929 
L 357.74631 53.58476 
L 360.29262 53.63611 
L 367.931551 53.687129 
L 373.024171 53.653125 
L 376.843636 53.610448 
L 378.116791 53.568 
L 379.389947 53.661823 
L 381.936257 53.636161 
L 389.575187 53.63611 
L 398.487273 53.627615 
L 398.487273 53.627615 
" style="fill:none;stroke:#ff6347;stroke-linecap:square;stroke-width:2;"/>
   </g>
   <g id="line2d_26">
    <path clip-path="url(#p28c6ca569f)" d="M 73.832727 295.488 
L 75.105882 231.184769 
L 76.379037 196.536976 
L 77.652193 185.912222 
L 78.925348 185.485525 
L 80.198503 176.31154 
L 81.471658 179.341088 
L 82.744813 212.410103 
L 84.017968 150.880401 
L 85.291123 177.634301 
L 87.837433 154.507326 
L 89.110588 182.797334 
L 90.383743 171.703213 
L 91.656898 152.971216 
L 92.930053 158.731625 
L 94.203209 161.590495 
L 95.476364 130.910984 
L 96.749519 140.511665 
L 98.022674 136.500714 
L 99.295829 144.565286 
L 100.568984 178.189007 
L 101.842139 141.791756 
L 103.115294 138.42085 
L 104.388449 141.493068 
L 105.661604 128.265463 
L 106.934759 151.392438 
L 108.207914 127.113381 
L 109.48107 130.10026 
L 110.754225 146.91212 
L 113.300535 128.009445 
L 114.57369 127.070711 
L 115.846845 129.673563 
L 117.12 138.548859 
L 118.393155 120.926275 
L 119.66631 135.305962 
L 120.939465 115.720572 
L 122.21262 119.006139 
L 123.485775 146.86945 
L 124.75893 130.142929 
L 126.032086 141.32239 
L 127.305241 115.891251 
L 128.578396 139.402253 
L 129.851551 129.929581 
L 131.124706 122.419714 
L 132.397861 134.19655 
L 133.671016 124.937226 
L 134.944171 132.83112 
L 136.217326 157.280856 
L 137.490481 132.91646 
L 138.763636 133.641844 
L 140.036791 124.38252 
L 141.309947 111.83763 
L 142.583102 128.094784 
L 143.856257 119.262157 
L 145.129412 108.424054 
L 146.402567 130.612296 
L 147.675722 118.024736 
L 148.948877 115.421884 
L 150.222032 123.401117 
L 151.495187 135.60465 
L 152.768342 140.042299 
L 154.041497 127.966775 
L 155.314652 117.598039 
L 156.587807 111.709621 
L 157.860963 111.240254 
L 159.134118 115.720572 
L 160.407273 115.464554 
L 161.680428 118.067405 
L 162.953583 117.726048 
L 164.226738 115.208536 
L 165.499893 115.848581 
L 166.773048 128.478811 
L 168.046203 116.701975 
L 169.319358 108.637403 
L 170.592513 117.128672 
L 171.865668 111.069575 
L 173.138824 132.148405 
L 174.411979 112.819033 
L 175.685134 119.902202 
L 176.958289 109.746815 
L 178.231444 121.69433 
L 179.504599 124.211842 
L 180.777754 118.79279 
L 182.050909 121.779669 
L 184.597219 101.511563 
L 185.870374 118.366093 
L 187.143529 108.680072 
L 188.416684 116.659305 
L 189.68984 133.343156 
L 190.962995 110.258851 
L 192.23615 112.904372 
L 193.509305 120.840936 
L 194.78246 111.325593 
L 196.055615 108.424054 
L 197.32877 103.901066 
L 198.601925 105.949212 
L 199.87508 110.898897 
L 201.148235 108.040027 
L 202.42139 106.119891 
L 203.694545 103.261021 
L 204.967701 110.856227 
L 206.240856 105.650524 
L 207.514011 113.629757 
L 208.787166 136.074017 
L 210.060321 105.138488 
L 211.333476 117.896727 
L 212.606631 114.141793 
L 213.879786 134.19655 
L 215.152941 106.503918 
L 216.426096 113.416409 
L 217.699251 105.735863 
L 218.972406 118.920799 
L 220.245561 103.687718 
L 221.518717 125.321254 
L 222.791872 114.483151 
L 225.338182 105.778533 
L 226.611337 102.06627 
L 227.884492 107.912018 
L 229.157647 108.893421 
L 230.430802 109.192109 
L 231.703957 106.546588 
L 232.977112 114.397812 
L 234.250267 126.345326 
L 235.523422 117.726048 
L 236.796578 91.569524 
L 238.069733 89.948076 
L 239.342888 90.161424 
L 240.616043 89.606718 
L 241.889198 90.161424 
L 245.708663 89.521379 
L 248.254973 90.076085 
L 250.801283 89.478709 
L 253.347594 90.033415 
L 254.620749 90.545452 
L 257.167059 90.033415 
L 259.713369 89.990746 
L 260.986524 89.3507 
L 262.259679 89.820067 
L 263.532834 89.649388 
L 264.805989 89.862737 
L 266.079144 89.649388 
L 267.352299 89.734727 
L 268.625455 88.795994 
L 269.89861 89.222691 
L 272.44492 89.521379 
L 273.718075 89.222691 
L 274.99123 89.692058 
L 276.264385 89.39337 
L 277.53754 89.3507 
L 278.810695 88.966673 
L 280.08385 89.308031 
L 281.357005 88.497306 
L 282.63016 88.753324 
L 283.903316 88.070609 
L 285.176471 88.326628 
L 286.449626 88.795994 
L 287.722781 89.094682 
L 288.995936 88.924003 
L 290.269091 88.283958 
L 291.542246 88.582646 
L 292.815401 88.710655 
L 294.088556 88.369297 
L 295.361711 88.966673 
L 296.634866 89.137352 
L 297.908021 88.881334 
L 299.181176 88.497306 
L 300.454332 88.454637 
L 301.727487 88.795994 
L 303.000642 88.369297 
L 304.273797 88.326628 
L 306.820107 88.582646 
L 308.093262 88.411967 
L 309.366417 88.582646 
L 310.639572 88.326628 
L 311.912727 88.539976 
L 313.185882 89.094682 
L 314.459037 88.710655 
L 315.732193 88.454637 
L 318.278503 88.454637 
L 319.551658 88.667985 
L 320.824813 88.539976 
L 323.371123 88.753324 
L 324.644278 88.667985 
L 325.917433 88.795994 
L 327.190588 88.625315 
L 328.463743 88.710655 
L 331.010053 88.667985 
L 332.283209 88.710655 
L 336.102674 88.539976 
L 337.375829 88.625315 
L 341.195294 88.497306 
L 342.468449 88.710655 
L 350.10738 88.497306 
L 351.380535 88.625315 
L 352.65369 88.582646 
L 353.926845 88.369297 
L 355.2 88.582646 
L 359.019465 88.795994 
L 360.29262 88.454637 
L 361.565775 88.539976 
L 362.83893 88.283958 
L 364.112086 88.497306 
L 365.385241 88.241288 
L 366.658396 88.411967 
L 367.931551 88.326628 
L 370.477861 88.411967 
L 371.751016 88.326628 
L 373.024171 88.411967 
L 374.297326 88.283958 
L 375.570481 88.454637 
L 376.843636 88.198618 
L 379.389947 88.369297 
L 380.663102 88.155949 
L 381.936257 88.369297 
L 387.028877 88.283958 
L 388.302032 88.411967 
L 390.848342 88.369297 
L 393.394652 87.9426 
L 394.667807 88.070609 
L 395.940963 87.98527 
L 397.214118 88.326628 
L 398.487273 88.155949 
L 398.487273 88.155949 
" style="fill:none;stroke:#4682b4;stroke-linecap:square;stroke-width:2;"/>
   </g>
   <g id="patch_3">
    <path d="M 57.6 307.584 
L 57.6 41.472 
" style="fill:none;stroke:#000000;stroke-linecap:square;stroke-linejoin:miter;stroke-width:0.8;"/>
   </g>
   <g id="patch_4">
    <path d="M 414.72 307.584 
L 414.72 41.472 
" style="fill:none;stroke:#000000;stroke-linecap:square;stroke-linejoin:miter;stroke-width:0.8;"/>
   </g>
   <g id="patch_5">
    <path d="M 57.6 307.584 
L 414.72 307.584 
" style="fill:none;stroke:#000000;stroke-linecap:square;stroke-linejoin:miter;stroke-width:0.8;"/>
   </g>
   <g id="patch_6">
    <path d="M 57.6 41.472 
L 414.72 41.472 
" style="fill:none;stroke:#000000;stroke-linecap:square;stroke-linejoin:miter;stroke-width:0.8;"/>
   </g>
   <g id="legend_1">
    <g id="patch_7">
     <path d="M 330.32 302.584 
L 407.72 302.584 
Q 409.72 302.584 409.72 300.584 
L 409.72 271.6715 
Q 409.72 269.6715 407.72 269.6715 
L 330.32 269.6715 
Q 328.32 269.6715 328.32 271.6715 
L 328.32 300.584 
Q 328.32 302.584 330.32 302.584 
z
" style="fill:#ffffff;opacity:0.8;stroke:#cccccc;stroke-linejoin:miter;"/>
    </g>
    <g id="line2d_27">
     <path d="M 332.32 277.769937 
L 352.32 277.769937 
" style="fill:none;stroke:#ff6347;stroke-linecap:square;stroke-width:2;"/>
    </g>
    <g id="line2d_28"/>
    <g id="text_14">
     <!-- train_acc -->
     <defs>
      <path d="M 18.3125 70.21875 
L 18.3125 54.6875 
L 36.8125 54.6875 
L 36.8125 47.703125 
L 18.3125 47.703125 
L 18.3125 18.015625 
Q 18.3125 11.328125 20.140625 9.421875 
Q 21.96875 7.515625 27.59375 7.515625 
L 36.8125 7.515625 
L 36.8125 0 
L 27.59375 0 
Q 17.1875 0 13.234375 3.875 
Q 9.28125 7.765625 9.28125 18.015625 
L 9.28125 47.703125 
L 2.6875 47.703125 
L 2.6875 54.6875 
L 9.28125 54.6875 
L 9.28125 70.21875 
z
" id="DejaVuSans-74"/>
      <path d="M 9.421875 54.6875 
L 18.40625 54.6875 
L 18.40625 0 
L 9.421875 0 
z
M 9.421875 75.984375 
L 18.40625 75.984375 
L 18.40625 64.59375 
L 9.421875 64.59375 
z
" id="DejaVuSans-69"/>
      <path d="M 54.890625 33.015625 
L 54.890625 0 
L 45.90625 0 
L 45.90625 32.71875 
Q 45.90625 40.484375 42.875 44.328125 
Q 39.84375 48.1875 33.796875 48.1875 
Q 26.515625 48.1875 22.3125 43.546875 
Q 18.109375 38.921875 18.109375 30.90625 
L 18.109375 0 
L 9.078125 0 
L 9.078125 54.6875 
L 18.109375 54.6875 
L 18.109375 46.1875 
Q 21.34375 51.125 25.703125 53.5625 
Q 30.078125 56 35.796875 56 
Q 45.21875 56 50.046875 50.171875 
Q 54.890625 44.34375 54.890625 33.015625 
z
" id="DejaVuSans-6e"/>
      <path d="M 50.984375 -16.609375 
L 50.984375 -23.578125 
L -0.984375 -23.578125 
L -0.984375 -16.609375 
z
" id="DejaVuSans-5f"/>
     </defs>
     <g transform="translate(360.32 281.269937)scale(0.1 -0.1)">
      <use xlink:href="#DejaVuSans-74"/>
      <use x="39.208984" xlink:href="#DejaVuSans-72"/>
      <use x="80.322266" xlink:href="#DejaVuSans-61"/>
      <use x="141.601562" xlink:href="#DejaVuSans-69"/>
      <use x="169.384766" xlink:href="#DejaVuSans-6e"/>
      <use x="232.763672" xlink:href="#DejaVuSans-5f"/>
      <use x="282.763672" xlink:href="#DejaVuSans-61"/>
      <use x="344.042969" xlink:href="#DejaVuSans-63"/>
      <use x="399.023438" xlink:href="#DejaVuSans-63"/>
     </g>
    </g>
    <g id="line2d_29">
     <path d="M 332.32 292.726187 
L 352.32 292.726187 
" style="fill:none;stroke:#4682b4;stroke-linecap:square;stroke-width:2;"/>
    </g>
    <g id="line2d_30"/>
    <g id="text_15">
     <!-- test_acc -->
     <defs>
      <path d="M 56.203125 29.59375 
L 56.203125 25.203125 
L 14.890625 25.203125 
Q 15.484375 15.921875 20.484375 11.0625 
Q 25.484375 6.203125 34.421875 6.203125 
Q 39.59375 6.203125 44.453125 7.46875 
Q 49.3125 8.734375 54.109375 11.28125 
L 54.109375 2.78125 
Q 49.265625 0.734375 44.1875 -0.34375 
Q 39.109375 -1.421875 33.890625 -1.421875 
Q 20.796875 -1.421875 13.15625 6.1875 
Q 5.515625 13.8125 5.515625 26.8125 
Q 5.515625 40.234375 12.765625 48.109375 
Q 20.015625 56 32.328125 56 
Q 43.359375 56 49.78125 48.890625 
Q 56.203125 41.796875 56.203125 29.59375 
z
M 47.21875 32.234375 
Q 47.125 39.59375 43.09375 43.984375 
Q 39.0625 48.390625 32.421875 48.390625 
Q 24.90625 48.390625 20.390625 44.140625 
Q 15.875 39.890625 15.1875 32.171875 
z
" id="DejaVuSans-65"/>
      <path d="M 44.28125 53.078125 
L 44.28125 44.578125 
Q 40.484375 46.53125 36.375 47.5 
Q 32.28125 48.484375 27.875 48.484375 
Q 21.1875 48.484375 17.84375 46.4375 
Q 14.5 44.390625 14.5 40.28125 
Q 14.5 37.15625 16.890625 35.375 
Q 19.28125 33.59375 26.515625 31.984375 
L 29.59375 31.296875 
Q 39.15625 29.25 43.1875 25.515625 
Q 47.21875 21.78125 47.21875 15.09375 
Q 47.21875 7.46875 41.1875 3.015625 
Q 35.15625 -1.421875 24.609375 -1.421875 
Q 20.21875 -1.421875 15.453125 -0.5625 
Q 10.6875 0.296875 5.421875 2 
L 5.421875 11.28125 
Q 10.40625 8.6875 15.234375 7.390625 
Q 20.0625 6.109375 24.8125 6.109375 
Q 31.15625 6.109375 34.5625 8.28125 
Q 37.984375 10.453125 37.984375 14.40625 
Q 37.984375 18.0625 35.515625 20.015625 
Q 33.0625 21.96875 24.703125 23.78125 
L 21.578125 24.515625 
Q 13.234375 26.265625 9.515625 29.90625 
Q 5.8125 33.546875 5.8125 39.890625 
Q 5.8125 47.609375 11.28125 51.796875 
Q 16.75 56 26.8125 56 
Q 31.78125 56 36.171875 55.265625 
Q 40.578125 54.546875 44.28125 53.078125 
z
" id="DejaVuSans-73"/>
     </defs>
     <g transform="translate(360.32 296.226187)scale(0.1 -0.1)">
      <use xlink:href="#DejaVuSans-74"/>
      <use x="39.208984" xlink:href="#DejaVuSans-65"/>
      <use x="100.732422" xlink:href="#DejaVuSans-73"/>
      <use x="152.832031" xlink:href="#DejaVuSans-74"/>
      <use x="192.041016" xlink:href="#DejaVuSans-5f"/>
      <use x="242.041016" xlink:href="#DejaVuSans-61"/>
      <use x="303.320312" xlink:href="#DejaVuSans-63"/>
      <use x="358.300781" xlink:href="#DejaVuSans-63"/>
     </g>
    </g>
   </g>
  </g>
  <g id="axes_2">
   <g id="matplotlib.axis_3">
    <g id="ytick_7">
     <g id="line2d_31">
      <defs>
       <path d="M 0 0 
L 3.5 0 
" id="m8e8a4b1232" style="stroke:#000000;stroke-width:0.8;"/>
      </defs>
      <g>
       <use style="stroke:#000000;stroke-width:0.8;" x="414.72" xlink:href="#m8e8a4b1232" y="306.940443"/>
      </g>
     </g>
     <g id="text_16">
      <!-- 0.0 -->
      <defs>
       <path d="M 10.6875 12.40625 
L 21 12.40625 
L 21 0 
L 10.6875 0 
z
" id="DejaVuSans-2e"/>
      </defs>
      <g transform="translate(421.72 310.739662)scale(0.1 -0.1)">
       <use xlink:href="#DejaVuSans-30"/>
       <use x="63.623047" xlink:href="#DejaVuSans-2e"/>
       <use x="95.410156" xlink:href="#DejaVuSans-30"/>
      </g>
     </g>
    </g>
    <g id="ytick_8">
     <g id="line2d_32">
      <g>
       <use style="stroke:#000000;stroke-width:0.8;" x="414.72" xlink:href="#m8e8a4b1232" y="264.858629"/>
      </g>
     </g>
     <g id="text_17">
      <!-- 0.5 -->
      <g transform="translate(421.72 268.657847)scale(0.1 -0.1)">
       <use xlink:href="#DejaVuSans-30"/>
       <use x="63.623047" xlink:href="#DejaVuSans-2e"/>
       <use x="95.410156" xlink:href="#DejaVuSans-35"/>
      </g>
     </g>
    </g>
    <g id="ytick_9">
     <g id="line2d_33">
      <g>
       <use style="stroke:#000000;stroke-width:0.8;" x="414.72" xlink:href="#m8e8a4b1232" y="222.776814"/>
      </g>
     </g>
     <g id="text_18">
      <!-- 1.0 -->
      <g transform="translate(421.72 226.576032)scale(0.1 -0.1)">
       <use xlink:href="#DejaVuSans-31"/>
       <use x="63.623047" xlink:href="#DejaVuSans-2e"/>
       <use x="95.410156" xlink:href="#DejaVuSans-30"/>
      </g>
     </g>
    </g>
    <g id="ytick_10">
     <g id="line2d_34">
      <g>
       <use style="stroke:#000000;stroke-width:0.8;" x="414.72" xlink:href="#m8e8a4b1232" y="180.694999"/>
      </g>
     </g>
     <g id="text_19">
      <!-- 1.5 -->
      <g transform="translate(421.72 184.494218)scale(0.1 -0.1)">
       <use xlink:href="#DejaVuSans-31"/>
       <use x="63.623047" xlink:href="#DejaVuSans-2e"/>
       <use x="95.410156" xlink:href="#DejaVuSans-35"/>
      </g>
     </g>
    </g>
    <g id="ytick_11">
     <g id="line2d_35">
      <g>
       <use style="stroke:#000000;stroke-width:0.8;" x="414.72" xlink:href="#m8e8a4b1232" y="138.613184"/>
      </g>
     </g>
     <g id="text_20">
      <!-- 2.0 -->
      <g transform="translate(421.72 142.412403)scale(0.1 -0.1)">
       <use xlink:href="#DejaVuSans-32"/>
       <use x="63.623047" xlink:href="#DejaVuSans-2e"/>
       <use x="95.410156" xlink:href="#DejaVuSans-30"/>
      </g>
     </g>
    </g>
    <g id="ytick_12">
     <g id="line2d_36">
      <g>
       <use style="stroke:#000000;stroke-width:0.8;" x="414.72" xlink:href="#m8e8a4b1232" y="96.531369"/>
      </g>
     </g>
     <g id="text_21">
      <!-- 2.5 -->
      <g transform="translate(421.72 100.330588)scale(0.1 -0.1)">
       <use xlink:href="#DejaVuSans-32"/>
       <use x="63.623047" xlink:href="#DejaVuSans-2e"/>
       <use x="95.410156" xlink:href="#DejaVuSans-35"/>
      </g>
     </g>
    </g>
    <g id="ytick_13">
     <g id="line2d_37">
      <g>
       <use style="stroke:#000000;stroke-width:0.8;" x="414.72" xlink:href="#m8e8a4b1232" y="54.449554"/>
      </g>
     </g>
     <g id="text_22">
      <!-- 3.0 -->
      <defs>
       <path d="M 40.578125 39.3125 
Q 47.65625 37.796875 51.625 33 
Q 55.609375 28.21875 55.609375 21.1875 
Q 55.609375 10.40625 48.1875 4.484375 
Q 40.765625 -1.421875 27.09375 -1.421875 
Q 22.515625 -1.421875 17.65625 -0.515625 
Q 12.796875 0.390625 7.625 2.203125 
L 7.625 11.71875 
Q 11.71875 9.328125 16.59375 8.109375 
Q 21.484375 6.890625 26.8125 6.890625 
Q 36.078125 6.890625 40.9375 10.546875 
Q 45.796875 14.203125 45.796875 21.1875 
Q 45.796875 27.640625 41.28125 31.265625 
Q 36.765625 34.90625 28.71875 34.90625 
L 20.21875 34.90625 
L 20.21875 43.015625 
L 29.109375 43.015625 
Q 36.375 43.015625 40.234375 45.921875 
Q 44.09375 48.828125 44.09375 54.296875 
Q 44.09375 59.90625 40.109375 62.90625 
Q 36.140625 65.921875 28.71875 65.921875 
Q 24.65625 65.921875 20.015625 65.03125 
Q 15.375 64.15625 9.8125 62.3125 
L 9.8125 71.09375 
Q 15.4375 72.65625 20.34375 73.4375 
Q 25.25 74.21875 29.59375 74.21875 
Q 40.828125 74.21875 47.359375 69.109375 
Q 53.90625 64.015625 53.90625 55.328125 
Q 53.90625 49.265625 50.4375 45.09375 
Q 46.96875 40.921875 40.578125 39.3125 
z
" id="DejaVuSans-33"/>
      </defs>
      <g transform="translate(421.72 58.248773)scale(0.1 -0.1)">
       <use xlink:href="#DejaVuSans-33"/>
       <use x="63.623047" xlink:href="#DejaVuSans-2e"/>
       <use x="95.410156" xlink:href="#DejaVuSans-30"/>
      </g>
     </g>
    </g>
    <g id="text_23">
     <!-- Loss -->
     <defs>
      <path d="M 9.8125 72.90625 
L 19.671875 72.90625 
L 19.671875 8.296875 
L 55.171875 8.296875 
L 55.171875 0 
L 9.8125 0 
z
" id="DejaVuSans-4c"/>
      <path d="M 30.609375 48.390625 
Q 23.390625 48.390625 19.1875 42.75 
Q 14.984375 37.109375 14.984375 27.296875 
Q 14.984375 17.484375 19.15625 11.84375 
Q 23.34375 6.203125 30.609375 6.203125 
Q 37.796875 6.203125 41.984375 11.859375 
Q 46.1875 17.53125 46.1875 27.296875 
Q 46.1875 37.015625 41.984375 42.703125 
Q 37.796875 48.390625 30.609375 48.390625 
z
M 30.609375 56 
Q 42.328125 56 49.015625 48.375 
Q 55.71875 40.765625 55.71875 27.296875 
Q 55.71875 13.875 49.015625 6.21875 
Q 42.328125 -1.421875 30.609375 -1.421875 
Q 18.84375 -1.421875 12.171875 6.21875 
Q 5.515625 13.875 5.515625 27.296875 
Q 5.515625 40.765625 12.171875 48.375 
Q 18.84375 56 30.609375 56 
z
" id="DejaVuSans-6f"/>
     </defs>
     <g transform="translate(449.221563 185.581906)rotate(-90)scale(0.1 -0.1)">
      <use xlink:href="#DejaVuSans-4c"/>
      <use x="55.697266" xlink:href="#DejaVuSans-6f"/>
      <use x="116.878906" xlink:href="#DejaVuSans-73"/>
      <use x="168.978516" xlink:href="#DejaVuSans-73"/>
     </g>
    </g>
   </g>
   <g id="line2d_38">
    <path clip-path="url(#p28c6ca569f)" d="M 73.832727 105.781333 
L 75.105882 153.762974 
L 76.379037 176.159472 
L 77.652193 192.242961 
L 78.925348 204.15695 
L 80.198503 213.572982 
L 81.471658 221.001128 
L 82.744813 227.46674 
L 84.017968 233.195271 
L 85.291123 237.74207 
L 87.837433 244.969665 
L 89.110588 248.021218 
L 92.930053 255.246811 
L 95.476364 258.783088 
L 99.295829 262.802533 
L 100.568984 263.808546 
L 101.842139 265.043935 
L 103.115294 265.758426 
L 104.388449 266.971087 
L 105.661604 267.607188 
L 106.934759 268.506405 
L 108.207914 268.932082 
L 109.48107 269.681691 
L 110.754225 270.106893 
L 113.300535 271.721257 
L 114.57369 271.768267 
L 115.846845 272.556788 
L 118.393155 273.203525 
L 119.66631 273.832492 
L 120.939465 274.198206 
L 122.21262 274.377161 
L 126.032086 275.785839 
L 127.305241 275.655444 
L 128.578396 276.49042 
L 131.124706 277.62448 
L 132.397861 277.204562 
L 133.671016 277.801245 
L 134.944171 278.237644 
L 136.217326 278.257344 
L 137.490481 278.959048 
L 138.763636 278.841591 
L 140.036791 279.060565 
L 141.309947 279.50162 
L 143.856257 279.798476 
L 145.129412 280.61391 
L 146.402567 280.572436 
L 148.948877 280.941839 
L 150.222032 281.432633 
L 151.495187 281.330406 
L 152.768342 281.871457 
L 154.041497 281.794243 
L 155.314652 282.498576 
L 156.587807 282.59609 
L 157.860963 282.000864 
L 159.134118 282.68632 
L 160.407273 283.129469 
L 161.680428 283.282195 
L 162.953583 282.971846 
L 164.226738 283.3127 
L 165.499893 283.509208 
L 166.773048 283.960717 
L 168.046203 284.038243 
L 169.319358 283.831554 
L 170.592513 284.180768 
L 171.865668 284.679294 
L 173.138824 284.946774 
L 174.411979 284.806391 
L 175.685134 285.012428 
L 176.958289 285.335225 
L 178.231444 285.518953 
L 179.504599 285.061665 
L 180.777754 285.575249 
L 182.050909 285.758671 
L 183.324064 286.117272 
L 185.870374 286.359455 
L 187.143529 286.289202 
L 188.416684 286.337823 
L 189.68984 286.544864 
L 190.962995 287.063879 
L 192.23615 287.198478 
L 193.509305 286.660389 
L 194.78246 287.529697 
L 196.055615 287.19443 
L 197.32877 287.244155 
L 198.601925 287.697603 
L 199.87508 287.664016 
L 204.967701 288.483974 
L 206.240856 288.310847 
L 208.787166 288.384878 
L 210.060321 289.058389 
L 211.333476 288.791396 
L 213.879786 288.851976 
L 216.426096 289.194361 
L 217.699251 289.224683 
L 221.518717 289.901732 
L 222.791872 290.013002 
L 224.065027 289.93202 
L 225.338182 289.356969 
L 226.611337 290.102583 
L 229.157647 289.785962 
L 231.703957 290.494677 
L 232.977112 290.594061 
L 235.523422 290.394553 
L 236.796578 291.737175 
L 238.069733 292.830841 
L 240.616043 293.288636 
L 243.162353 293.505287 
L 272.44492 294.48096 
L 301.727487 295.063465 
L 313.185882 295.281078 
L 323.371123 295.373842 
L 331.010053 295.352723 
L 341.195294 295.386953 
L 360.29262 295.424127 
L 370.477861 295.44104 
L 387.028877 295.449202 
L 398.487273 295.472081 
L 398.487273 295.472081 
" style="fill:none;stroke:#ff6347;stroke-dasharray:7.4,3.2;stroke-dashoffset:0;stroke-width:2;"/>
   </g>
   <g id="line2d_39">
    <path clip-path="url(#p28c6ca569f)" d="M 73.832727 53.568 
L 75.105882 125.292421 
L 76.379037 155.526728 
L 77.652193 164.246673 
L 78.925348 162.771775 
L 80.198503 179.214894 
L 81.471658 178.126571 
L 82.744813 152.174044 
L 84.017968 208.336899 
L 85.291123 184.081083 
L 86.564278 193.9128 
L 87.837433 206.911456 
L 89.110588 174.246983 
L 90.383743 183.883432 
L 91.656898 205.275733 
L 92.930053 193.865997 
L 94.203209 183.515721 
L 95.476364 229.322606 
L 96.749519 215.465062 
L 98.022674 217.592407 
L 99.295829 210.847003 
L 100.568984 185.399179 
L 101.842139 214.722762 
L 103.115294 216.965062 
L 104.388449 216.748295 
L 105.661604 227.189517 
L 106.934759 202.460456 
L 108.207914 228.412809 
L 109.48107 228.496128 
L 110.754225 203.758061 
L 113.300535 229.321628 
L 114.57369 233.51558 
L 115.846845 225.964528 
L 117.12 210.463065 
L 118.393155 236.068103 
L 119.66631 229.858084 
L 120.939465 241.123238 
L 122.21262 237.053865 
L 123.485775 207.860549 
L 124.75893 220.108655 
L 126.032086 215.348542 
L 127.305241 236.531529 
L 128.578396 216.398339 
L 129.851551 228.19661 
L 131.124706 231.423682 
L 132.397861 221.413482 
L 133.671016 225.610431 
L 134.944171 217.956454 
L 136.217326 182.501236 
L 137.490481 212.870408 
L 140.036791 229.668603 
L 141.309947 244.416245 
L 142.583102 223.403183 
L 143.856257 232.743975 
L 145.129412 249.510097 
L 146.402567 226.12523 
L 147.675722 240.73328 
L 148.948877 243.063961 
L 150.222032 236.820427 
L 151.495187 220.723747 
L 152.768342 215.104318 
L 155.314652 236.267515 
L 156.587807 240.375558 
L 157.860963 246.302875 
L 159.134118 238.706242 
L 160.407273 241.080091 
L 161.680428 238.763853 
L 162.953583 237.948086 
L 164.226738 237.312252 
L 165.499893 243.058599 
L 166.773048 227.246177 
L 168.046203 235.228774 
L 169.319358 245.501022 
L 170.592513 240.907401 
L 171.865668 244.082192 
L 173.138824 216.113109 
L 174.411979 244.885916 
L 175.685134 236.800714 
L 176.958289 245.838846 
L 178.231444 232.349915 
L 179.504599 235.903602 
L 180.777754 237.59643 
L 182.050909 232.611247 
L 183.324064 245.512307 
L 184.597219 254.344661 
L 185.870374 236.147982 
L 187.143529 245.684979 
L 188.416684 239.284278 
L 189.68984 217.312876 
L 190.962995 246.182129 
L 192.23615 242.189054 
L 193.509305 233.08667 
L 194.78246 247.372302 
L 196.055615 244.474317 
L 197.32877 254.604419 
L 198.601925 251.423598 
L 199.87508 247.621419 
L 201.148235 247.736106 
L 202.42139 250.223168 
L 203.694545 253.398014 
L 204.967701 243.554046 
L 206.240856 250.019807 
L 207.514011 241.074182 
L 208.787166 219.168212 
L 210.060321 252.075892 
L 211.333476 239.175934 
L 212.606631 242.310516 
L 213.879786 215.418779 
L 215.152941 249.901075 
L 216.426096 241.958952 
L 217.699251 248.780316 
L 218.972406 238.660269 
L 220.245561 253.445084 
L 221.518717 229.497513 
L 222.791872 243.719194 
L 224.065027 245.955837 
L 225.338182 247.659687 
L 226.611337 254.283621 
L 227.884492 249.080299 
L 229.157647 245.19712 
L 230.430802 243.229241 
L 231.703957 248.618539 
L 232.977112 242.923657 
L 234.250267 224.449031 
L 235.523422 233.339638 
L 236.796578 263.021631 
L 238.069733 264.29525 
L 239.342888 263.79994 
L 240.616043 263.898164 
L 241.889198 264.38923 
L 243.162353 263.944272 
L 244.435508 264.115141 
L 245.708663 264.539301 
L 246.981818 264.028225 
L 248.254973 264.423188 
L 250.801283 264.694448 
L 252.074439 264.102456 
L 253.347594 264.285635 
L 254.620749 264.255194 
L 255.893904 264.486557 
L 259.713369 264.262103 
L 260.986524 264.333812 
L 262.259679 264.23739 
L 263.532834 264.299838 
L 264.805989 264.002746 
L 266.079144 264.213003 
L 267.352299 264.044204 
L 268.625455 264.595687 
L 271.171765 264.525715 
L 272.44492 264.647397 
L 273.718075 264.499853 
L 274.99123 264.470997 
L 276.264385 264.716132 
L 277.53754 264.487129 
L 280.08385 264.583179 
L 281.357005 264.868419 
L 282.63016 264.57104 
L 283.903316 264.920631 
L 285.176471 265.093677 
L 288.995936 264.567142 
L 290.269091 265.057053 
L 291.542246 265.044017 
L 292.815401 264.874707 
L 294.088556 265.239438 
L 295.361711 264.665453 
L 297.908021 264.594181 
L 300.454332 265.100471 
L 301.727487 264.975878 
L 303.000642 265.179763 
L 305.546952 265.432299 
L 306.820107 265.278757 
L 308.093262 265.267065 
L 309.366417 265.371754 
L 311.912727 265.123234 
L 313.185882 264.875455 
L 314.459037 265.266283 
L 317.005348 265.440413 
L 320.824813 265.525257 
L 325.917433 265.547859 
L 339.922139 265.600209 
L 342.468449 265.632886 
L 351.380535 265.650743 
L 352.65369 265.702727 
L 355.2 265.605751 
L 364.112086 265.655624 
L 374.297326 265.705009 
L 376.843636 265.644632 
L 383.209412 265.656464 
L 385.755722 265.630416 
L 388.302032 265.690267 
L 398.487273 265.684956 
L 398.487273 265.684956 
" style="fill:none;stroke:#4682b4;stroke-dasharray:7.4,3.2;stroke-dashoffset:0;stroke-width:2;"/>
   </g>
   <g id="patch_8">
    <path d="M 57.6 307.584 
L 57.6 41.472 
" style="fill:none;stroke:#000000;stroke-linecap:square;stroke-linejoin:miter;stroke-width:0.8;"/>
   </g>
   <g id="patch_9">
    <path d="M 414.72 307.584 
L 414.72 41.472 
" style="fill:none;stroke:#000000;stroke-linecap:square;stroke-linejoin:miter;stroke-width:0.8;"/>
   </g>
   <g id="patch_10">
    <path d="M 57.6 307.584 
L 414.72 307.584 
" style="fill:none;stroke:#000000;stroke-linecap:square;stroke-linejoin:miter;stroke-width:0.8;"/>
   </g>
   <g id="patch_11">
    <path d="M 57.6 41.472 
L 414.72 41.472 
" style="fill:none;stroke:#000000;stroke-linecap:square;stroke-linejoin:miter;stroke-width:0.8;"/>
   </g>
   <g id="legend_2">
    <g id="patch_12">
     <path d="M 328.129375 79.3845 
L 407.72 79.3845 
Q 409.72 79.3845 409.72 77.3845 
L 409.72 48.472 
Q 409.72 46.472 407.72 46.472 
L 328.129375 46.472 
Q 326.129375 46.472 326.129375 48.472 
L 326.129375 77.3845 
Q 326.129375 79.3845 328.129375 79.3845 
z
" style="fill:#ffffff;opacity:0.8;stroke:#cccccc;stroke-linejoin:miter;"/>
    </g>
    <g id="line2d_40">
     <path d="M 330.129375 54.570438 
L 350.129375 54.570438 
" style="fill:none;stroke:#ff6347;stroke-dasharray:7.4,3.2;stroke-dashoffset:0;stroke-width:2;"/>
    </g>
    <g id="line2d_41"/>
    <g id="text_24">
     <!-- train_loss -->
     <defs>
      <path d="M 9.421875 75.984375 
L 18.40625 75.984375 
L 18.40625 0 
L 9.421875 0 
z
" id="DejaVuSans-6c"/>
     </defs>
     <g transform="translate(358.129375 58.070438)scale(0.1 -0.1)">
      <use xlink:href="#DejaVuSans-74"/>
      <use x="39.208984" xlink:href="#DejaVuSans-72"/>
      <use x="80.322266" xlink:href="#DejaVuSans-61"/>
      <use x="141.601562" xlink:href="#DejaVuSans-69"/>
      <use x="169.384766" xlink:href="#DejaVuSans-6e"/>
      <use x="232.763672" xlink:href="#DejaVuSans-5f"/>
      <use x="282.763672" xlink:href="#DejaVuSans-6c"/>
      <use x="310.546875" xlink:href="#DejaVuSans-6f"/>
      <use x="371.728516" xlink:href="#DejaVuSans-73"/>
      <use x="423.828125" xlink:href="#DejaVuSans-73"/>
     </g>
    </g>
    <g id="line2d_42">
     <path d="M 330.129375 69.526688 
L 350.129375 69.526688 
" style="fill:none;stroke:#4682b4;stroke-dasharray:7.4,3.2;stroke-dashoffset:0;stroke-width:2;"/>
    </g>
    <g id="line2d_43"/>
    <g id="text_25">
     <!-- test_loss -->
     <g transform="translate(358.129375 73.026688)scale(0.1 -0.1)">
      <use xlink:href="#DejaVuSans-74"/>
      <use x="39.208984" xlink:href="#DejaVuSans-65"/>
      <use x="100.732422" xlink:href="#DejaVuSans-73"/>
      <use x="152.832031" xlink:href="#DejaVuSans-74"/>
      <use x="192.041016" xlink:href="#DejaVuSans-5f"/>
      <use x="242.041016" xlink:href="#DejaVuSans-6c"/>
      <use x="269.824219" xlink:href="#DejaVuSans-6f"/>
      <use x="331.005859" xlink:href="#DejaVuSans-73"/>
      <use x="383.105469" xlink:href="#DejaVuSans-73"/>
     </g>
    </g>
   </g>
  </g>
 </g>
 <defs>
  <clipPath id="p28c6ca569f">
   <rect height="266.112" width="357.12" x="57.6" y="41.472"/>
  </clipPath>
 </defs>
</svg>
